<svg width="98" height="97" viewBox="0 0 98 97" fill="none" xmlns="http://www.w3.org/2000/svg">
<rect x="1.50781" y="0.507812" width="95.6652" height="95.6652" rx="8" fill="white"/>
<rect x="1.50781" y="0.507812" width="95.6652" height="95.6652" rx="10.9332" fill="white"/>
<path d="M14.362 20.7119V22.0282C14.5507 21.9874 14.7242 21.967 14.8824 21.967C15.4028 21.967 15.811 22.1048 16.1069 22.3803C16.4028 22.6507 16.5508 23.0181 16.5508 23.4823C16.5508 23.9824 16.385 24.3829 16.0533 24.6839C15.7268 24.9798 15.2701 25.1278 14.6834 25.1278C14.1579 25.1278 13.7242 25.0411 13.3823 24.8676V24.1405C13.7089 24.3395 14.1017 24.439 14.5609 24.439C15.3671 24.439 15.7701 24.1125 15.7701 23.4594C15.7701 23.1992 15.6783 22.9976 15.4946 22.8548C15.3161 22.7068 15.0737 22.6328 14.7676 22.6328C14.3798 22.6328 13.9972 22.7221 13.6196 22.9007V20.0614H16.214V20.7119H14.362ZM18.0878 20.7119V22.0282C18.2766 21.9874 18.4501 21.967 18.6082 21.967C19.1287 21.967 19.5368 22.1048 19.8327 22.3803C20.1287 22.6507 20.2766 23.0181 20.2766 23.4823C20.2766 23.9824 20.1108 24.3829 19.7792 24.6839C19.4526 24.9798 18.996 25.1278 18.4093 25.1278C17.8837 25.1278 17.45 25.0411 17.1082 24.8676V24.1405C17.4347 24.3395 17.8276 24.439 18.2868 24.439C19.0929 24.439 19.496 24.1125 19.496 23.4594C19.496 23.1992 19.4042 22.9976 19.2205 22.8548C19.0419 22.7068 18.7996 22.6328 18.4934 22.6328C18.1057 22.6328 17.723 22.7221 17.3455 22.9007V20.0614H19.9399V20.7119H18.0878ZM20.7499 22.5563C20.7499 21.7706 20.9055 21.1481 21.2167 20.6889C21.5331 20.2246 21.9642 19.9925 22.5101 19.9925C23.0663 19.9925 23.5025 20.2221 23.8188 20.6813C24.1352 21.1405 24.2933 21.7655 24.2933 22.5563C24.2933 23.3369 24.1377 23.962 23.8265 24.4313C23.5203 24.9007 23.0816 25.1354 22.5101 25.1354C21.9642 25.1354 21.5331 24.9007 21.2167 24.4313C20.9055 23.962 20.7499 23.3369 20.7499 22.5563ZM21.7984 21.1787C21.6096 21.5002 21.5152 21.9594 21.5152 22.5563C21.5152 23.1533 21.607 23.6176 21.7907 23.9492C21.9795 24.2757 22.2193 24.439 22.5101 24.439C22.8265 24.439 23.0739 24.2757 23.2525 23.9492C23.4311 23.6227 23.5203 23.1584 23.5203 22.5563C23.5203 21.9492 23.426 21.4874 23.2372 21.1711C23.0535 20.8496 22.8111 20.6889 22.5101 20.6889C22.2244 20.6889 21.9871 20.8522 21.7984 21.1787ZM24.7672 22.5563C24.7672 21.7706 24.9228 21.1481 25.2341 20.6889C25.5504 20.2246 25.9815 19.9925 26.5275 19.9925C27.0836 19.9925 27.5198 20.2221 27.8362 20.6813C28.1525 21.1405 28.3107 21.7655 28.3107 22.5563C28.3107 23.3369 28.155 23.962 27.8438 24.4313C27.5377 24.9007 27.0989 25.1354 26.5275 25.1354C25.9815 25.1354 25.5504 24.9007 25.2341 24.4313C24.9228 23.962 24.7672 23.3369 24.7672 22.5563ZM25.8157 21.1787C25.6269 21.5002 25.5325 21.9594 25.5325 22.5563C25.5325 23.1533 25.6244 23.6176 25.8081 23.9492C25.9968 24.2757 26.2366 24.439 26.5275 24.439C26.8438 24.439 27.0912 24.2757 27.2698 23.9492C27.4484 23.6227 27.5377 23.1584 27.5377 22.5563C27.5377 21.9492 27.4433 21.4874 27.2545 21.1711C27.0708 20.8496 26.8285 20.6889 26.5275 20.6889C26.2417 20.6889 26.0045 20.8522 25.8157 21.1787ZM30.3083 20.069H33.6068V20.7195L31.5711 25.0742H30.7675L32.8109 20.7195H30.3083V20.069ZM34.8695 24.4237H37.043V25.0742H33.8363V24.4543C34.4792 23.9849 35.02 23.5002 35.4588 23.0002C35.9027 22.4951 36.1246 22.0359 36.1246 21.6226C36.1246 21.3318 36.0404 21.1099 35.872 20.9568C35.7037 20.7986 35.4715 20.7195 35.1756 20.7195C34.7674 20.7195 34.3669 20.8726 33.974 21.1787V20.4364C34.3414 20.1558 34.7776 20.0154 35.2827 20.0154C35.7521 20.0154 36.1399 20.1481 36.446 20.4134C36.7522 20.6736 36.9052 21.0461 36.9052 21.5308C36.9052 22.4288 36.2266 23.3931 34.8695 24.4237ZM38.4825 21.194V21.8599C38.7121 21.3803 39.1152 21.1405 39.6917 21.1405C40.0744 21.1405 40.378 21.2578 40.6024 21.4925C40.8269 21.7272 40.9392 22.0461 40.9392 22.4492V25.0742H40.1892V22.6252C40.1892 22.3548 40.1203 22.1481 39.9825 22.0053C39.8499 21.8624 39.6713 21.791 39.4468 21.791C39.1815 21.791 38.9545 21.8956 38.7657 22.1048C38.5769 22.3089 38.4825 22.5971 38.4825 22.9696V25.0742H37.7325V21.194H38.4825ZM43.3636 24.4696C43.6595 24.4696 43.9095 24.3574 44.1136 24.1329C44.3177 23.9084 44.4197 23.5665 44.4197 23.1073C44.4197 22.6635 44.3126 22.3344 44.0983 22.1201C43.8891 21.9058 43.6519 21.7986 43.3865 21.7986C43.0855 21.7986 42.8381 21.9185 42.6442 22.1583C42.4503 22.393 42.3534 22.7298 42.3534 23.1686C42.3534 23.5563 42.4477 23.8701 42.6365 24.1099C42.8304 24.3497 43.0728 24.4696 43.3636 24.4696ZM44.4197 19.6634H45.1774V25.0742H44.4197V24.4849C44.1493 24.9135 43.7539 25.1278 43.2335 25.1278C42.7233 25.1278 42.3202 24.9365 42.0243 24.5538C41.7283 24.166 41.5804 23.6992 41.5804 23.1533C41.5804 22.5461 41.736 22.0589 42.0472 21.6915C42.3585 21.3241 42.759 21.1405 43.2488 21.1405C43.7539 21.1405 44.1442 21.3548 44.4197 21.7833V19.6634ZM48.9824 23.1533H50.6355L50.5513 22.8931C50.3574 22.291 50.1992 21.7935 50.0768 21.4007C49.9543 21.0027 49.8803 20.7553 49.8548 20.6583L49.8166 20.5129C49.7604 20.7527 49.5104 21.5461 49.0665 22.8931L48.9824 23.1533ZM51.2554 25.0742L50.8497 23.8114H48.7681L48.3548 25.0742H47.5206L49.3038 19.916H50.337L52.0972 25.0742H51.2554ZM53.7056 25.0742L52.328 21.194H53.1163L53.6444 22.8318C53.7668 23.2094 53.8689 23.5359 53.9505 23.8114C54.0372 24.087 54.0908 24.2681 54.1112 24.3548L54.1418 24.4849C54.1877 24.2349 54.3561 23.6839 54.6469 22.8318L55.1903 21.194H55.9709L54.5627 25.0742H53.7056ZM58.8996 22.8548V22.717C58.8894 22.4262 58.8103 22.1966 58.6624 22.0282C58.5144 21.8548 58.3027 21.768 58.0271 21.768C57.772 21.768 57.5526 21.8624 57.369 22.0512C57.1853 22.2349 57.0705 22.5027 57.0246 22.8548H58.8996ZM59.3818 24.1941V24.8676C59.096 25.0309 58.7185 25.1125 58.2491 25.1125C57.647 25.1125 57.1674 24.9314 56.8103 24.5691C56.4531 24.2069 56.2746 23.7324 56.2746 23.1456C56.2746 22.5231 56.4378 22.0359 56.7644 21.6838C57.0909 21.3267 57.5067 21.1481 58.0118 21.1481C58.5067 21.1481 58.8996 21.3037 59.1904 21.615C59.4813 21.9211 59.6267 22.365 59.6267 22.9466C59.6267 23.1048 59.6114 23.2706 59.5807 23.4441H57.0322C57.0832 23.7808 57.2261 24.0385 57.4608 24.2171C57.6955 24.3956 57.9914 24.4849 58.3486 24.4849C58.7619 24.4849 59.1062 24.388 59.3818 24.1941ZM62.1177 25.0742V19.916H63.0514L64.3218 22.0742C64.5565 22.4772 64.7682 22.8497 64.957 23.1915C65.1509 23.5334 65.2836 23.7732 65.355 23.9109L65.4621 24.1252C65.4315 23.6609 65.4162 22.9798 65.4162 22.0818V19.916H66.2045V25.0742H65.2708L63.9927 22.9237C63.7631 22.5359 63.5514 22.1711 63.3575 21.8293C63.1687 21.4823 63.0361 21.2323 62.9595 21.0792L62.8447 20.8573C62.8855 21.3675 62.906 22.0537 62.906 22.916V25.0742H62.1177Z" fill="#07133B"/>
<path d="M16.3288 38.9154V39.8491C15.9462 39.6195 15.538 39.5047 15.1043 39.5047C14.8645 39.5047 14.6757 39.5583 14.538 39.6654C14.4053 39.7726 14.339 39.9103 14.339 40.0787C14.339 40.1705 14.3594 40.2547 14.4002 40.3312C14.4461 40.4027 14.5201 40.4741 14.6222 40.5455C14.7242 40.6119 14.8135 40.6654 14.89 40.7062C14.9717 40.7471 15.0916 40.8032 15.2497 40.8746C15.4436 40.9614 15.6043 41.0404 15.7319 41.1119C15.8594 41.1833 15.9946 41.2802 16.1375 41.4027C16.2855 41.52 16.3952 41.6655 16.4666 41.8389C16.538 42.0073 16.5737 42.1986 16.5737 42.4129C16.5737 42.8109 16.4462 43.1425 16.1911 43.4078C15.9411 43.668 15.6018 43.8288 15.1732 43.89V44.7395H14.4002V43.8976C13.9767 43.8568 13.6221 43.7548 13.3364 43.5915V42.6042C13.7752 42.9206 14.2548 43.0787 14.7752 43.0787C15.0099 43.0787 15.1987 43.0226 15.3416 42.9104C15.4844 42.793 15.5559 42.6374 15.5559 42.4435C15.5559 42.3874 15.5457 42.3364 15.5252 42.2905C15.5099 42.2394 15.4895 42.1961 15.464 42.1604C15.4436 42.1195 15.4079 42.0787 15.3569 42.0379C15.3059 41.9971 15.2625 41.9639 15.2268 41.9384C15.1911 41.9129 15.1324 41.8797 15.0507 41.8389C14.9742 41.7981 14.9155 41.77 14.8747 41.7547C14.8339 41.7343 14.7625 41.7037 14.6604 41.6629C14.5584 41.617 14.487 41.5838 14.4461 41.5634C14.0941 41.4001 13.8135 41.2114 13.6043 40.9971C13.4002 40.7828 13.2982 40.4894 13.2982 40.117C13.2982 39.719 13.4308 39.3924 13.6961 39.1373C13.9614 38.8822 14.3211 38.7292 14.7752 38.6781V37.8363H15.5559V38.6935C15.8518 38.7343 16.1094 38.8083 16.3288 38.9154ZM16.8321 40.5915V39.6348L18.1562 38.8542H18.9674V43.8594H18.0567V39.8491L16.8321 40.5915ZM20.7919 39.6348V40.7369C20.9399 40.7062 21.0827 40.6909 21.2205 40.6909C21.7562 40.6909 22.1695 40.8287 22.4603 41.1042C22.7562 41.3797 22.9042 41.7547 22.9042 42.2292C22.9042 42.7395 22.7358 43.1476 22.3991 43.4538C22.0623 43.7599 21.5904 43.9129 20.9832 43.9129C20.4577 43.9129 20.0164 43.8237 19.6592 43.6451V42.765C19.996 42.9691 20.3863 43.0711 20.8302 43.0711C21.5802 43.0711 21.9552 42.7828 21.9552 42.2063C21.9552 41.9818 21.8736 41.8058 21.7103 41.6782C21.5521 41.5507 21.3251 41.4869 21.0292 41.4869C20.6414 41.4869 20.2613 41.5736 19.8888 41.7471V38.8465H22.5828V39.6348H20.7919ZM23.3168 41.3338C23.3168 40.543 23.4724 39.918 23.7836 39.4588C24.0948 38.9945 24.5362 38.7623 25.1076 38.7623C25.6842 38.7623 26.128 38.9945 26.4393 39.4588C26.7556 39.918 26.9138 40.543 26.9138 41.3338C26.9138 42.1195 26.7582 42.7471 26.4469 43.2165C26.1408 43.6859 25.6944 43.9206 25.1076 43.9206C24.5362 43.9206 24.0948 43.6859 23.7836 43.2165C23.4724 42.7471 23.3168 42.1195 23.3168 41.3338ZM24.4877 40.0481C24.3346 40.344 24.2581 40.7726 24.2581 41.3338C24.2581 41.895 24.3321 42.3287 24.48 42.6349C24.6331 42.9359 24.8423 43.0864 25.1076 43.0864C25.3831 43.0864 25.5949 42.9359 25.7428 42.6349C25.8959 42.3338 25.9724 41.9002 25.9724 41.3338C25.9724 40.7675 25.8933 40.3363 25.7352 40.0404C25.5821 39.7445 25.3729 39.5965 25.1076 39.5965C24.8474 39.5965 24.6408 39.747 24.4877 40.0481ZM26.9972 44.8237L27.7472 42.9333H28.811L27.7931 44.8237H26.9972ZM29.2363 41.3338C29.2363 40.543 29.392 39.918 29.7032 39.4588C30.0144 38.9945 30.4558 38.7623 31.0272 38.7623C31.6037 38.7623 32.0476 38.9945 32.3589 39.4588C32.6752 39.918 32.8334 40.543 32.8334 41.3338C32.8334 42.1195 32.6777 42.7471 32.3665 43.2165C32.0604 43.6859 31.6139 43.9206 31.0272 43.9206C30.4558 43.9206 30.0144 43.6859 29.7032 43.2165C29.392 42.7471 29.2363 42.1195 29.2363 41.3338ZM30.4073 40.0481C30.2542 40.344 30.1777 40.7726 30.1777 41.3338C30.1777 41.895 30.2517 42.3287 30.3996 42.6349C30.5527 42.9359 30.7619 43.0864 31.0272 43.0864C31.3027 43.0864 31.5144 42.9359 31.6624 42.6349C31.8155 42.3338 31.892 41.9002 31.892 41.3338C31.892 40.7675 31.8129 40.3363 31.6548 40.0404C31.5017 39.7445 31.2925 39.5965 31.0272 39.5965C30.767 39.5965 30.5603 39.747 30.4073 40.0481ZM33.2612 41.3338C33.2612 40.543 33.4168 39.918 33.728 39.4588C34.0392 38.9945 34.4806 38.7623 35.052 38.7623C35.6286 38.7623 36.0724 38.9945 36.3837 39.4588C36.7 39.918 36.8582 40.543 36.8582 41.3338C36.8582 42.1195 36.7026 42.7471 36.3913 43.2165C36.0852 43.6859 35.6388 43.9206 35.052 43.9206C34.4806 43.9206 34.0392 43.6859 33.728 43.2165C33.4168 42.7471 33.2612 42.1195 33.2612 41.3338ZM34.4321 40.0481C34.279 40.344 34.2025 40.7726 34.2025 41.3338C34.2025 41.895 34.2765 42.3287 34.4244 42.6349C34.5775 42.9359 34.7867 43.0864 35.052 43.0864C35.3275 43.0864 35.5393 42.9359 35.6872 42.6349C35.8403 42.3338 35.9168 41.9002 35.9168 41.3338C35.9168 40.7675 35.8377 40.3363 35.6796 40.0404C35.5265 39.7445 35.3173 39.5965 35.052 39.5965C34.7918 39.5965 34.5852 39.747 34.4321 40.0481ZM37.286 41.3338C37.286 40.543 37.4416 39.918 37.7528 39.4588C38.064 38.9945 38.5054 38.7623 39.0768 38.7623C39.6534 38.7623 40.0973 38.9945 40.4085 39.4588C40.7248 39.918 40.883 40.543 40.883 41.3338C40.883 42.1195 40.7274 42.7471 40.4161 43.2165C40.11 43.6859 39.6636 43.9206 39.0768 43.9206C38.5054 43.9206 38.064 43.6859 37.7528 43.2165C37.4416 42.7471 37.286 42.1195 37.286 41.3338ZM38.4569 40.0481C38.3038 40.344 38.2273 40.7726 38.2273 41.3338C38.2273 41.895 38.3013 42.3287 38.4493 42.6349C38.6023 42.9359 38.8115 43.0864 39.0768 43.0864C39.3523 43.0864 39.5641 42.9359 39.712 42.6349C39.8651 42.3338 39.9416 41.9002 39.9416 41.3338C39.9416 40.7675 39.8626 40.3363 39.7044 40.0404C39.5513 39.7445 39.3421 39.5965 39.0768 39.5965C38.8166 39.5965 38.61 39.747 38.4569 40.0481Z" fill="#1AD079"/>
<path d="M14.163 57.9123H14.7523C15.0782 57.9123 15.3259 57.832 15.4956 57.6713C15.6697 57.5106 15.7568 57.2985 15.7568 57.0351C15.7568 56.7583 15.6697 56.5395 15.4956 56.3788C15.3215 56.2181 15.0692 56.1378 14.7389 56.1378H14.163V57.9123ZM13.4732 55.5685H14.7657C15.2835 55.5685 15.6943 55.7069 15.9978 55.9837C16.3014 56.2561 16.4532 56.6065 16.4532 57.0351C16.4532 57.4637 16.2992 57.8119 15.9911 58.0798C15.6876 58.3476 15.2925 58.4816 14.8058 58.4816H14.163V60.082H13.4732V55.5685ZM17.0211 60.082V56.6869H17.6841V60.082H17.0211ZM17.0546 55.9436C16.9787 55.8632 16.9407 55.765 16.9407 55.6489C16.9407 55.5328 16.9787 55.4346 17.0546 55.3543C17.1349 55.2739 17.2332 55.2337 17.3492 55.2337C17.4653 55.2337 17.5635 55.2739 17.6439 55.3543C17.7242 55.4346 17.7644 55.5328 17.7644 55.6489C17.7644 55.7605 17.7242 55.8565 17.6439 55.9369C17.5635 56.0172 17.4653 56.0574 17.3492 56.0574C17.2332 56.0574 17.1349 56.0194 17.0546 55.9436ZM19.1581 56.6869V57.2695C19.359 56.8498 19.7117 56.64 20.2161 56.64C20.551 56.64 20.8166 56.7427 21.013 56.948C21.2095 57.1534 21.3077 57.4324 21.3077 57.7851V60.082H20.6514V57.9391C20.6514 57.7025 20.5912 57.5217 20.4706 57.3967C20.3545 57.2717 20.1983 57.2092 20.0019 57.2092C19.7697 57.2092 19.571 57.3007 19.4059 57.4838C19.2407 57.6623 19.1581 57.9146 19.1581 58.2405V60.082H18.5018V56.6869H19.1581ZM24.1657 58.14V58.0195C24.1567 57.765 24.0875 57.5641 23.9581 57.4168C23.8286 57.265 23.6433 57.1891 23.4022 57.1891C23.179 57.1891 22.9871 57.2717 22.8263 57.4369C22.6656 57.5976 22.5652 57.832 22.525 58.14H24.1657ZM24.5875 59.3119V59.9012C24.3375 60.0441 24.0072 60.1155 23.5964 60.1155C23.0696 60.1155 22.65 59.957 22.3375 59.6401C22.025 59.3231 21.8687 58.9079 21.8687 58.3945C21.8687 57.8498 22.0116 57.4235 22.2973 57.1155C22.583 56.8029 22.9469 56.6467 23.3888 56.6467C23.8219 56.6467 24.1657 56.7829 24.4201 57.0552C24.6746 57.323 24.8018 57.7114 24.8018 58.2204C24.8018 58.3588 24.7884 58.5039 24.7616 58.6557H22.5317C22.5763 58.9503 22.7013 59.1758 22.9067 59.332C23.1121 59.4883 23.371 59.5664 23.6835 59.5664C24.0451 59.5664 24.3465 59.4816 24.5875 59.3119ZM25.4674 60.082V55.3476H26.1304V60.082H25.4674ZM26.9749 60.082V55.3476H27.6379V60.082H26.9749ZM30.2436 58.5686H29.7347C29.4847 58.5686 29.2949 58.6177 29.1655 58.7159C29.0405 58.8141 28.978 58.9392 28.978 59.0909C28.978 59.2472 29.0271 59.37 29.1253 59.4593C29.2235 59.5485 29.3664 59.5932 29.5539 59.5932C29.7682 59.5932 29.9356 59.5351 30.0561 59.4191C30.1811 59.2985 30.2436 59.1423 30.2436 58.9503V58.5686ZM28.536 57.4972V56.861C28.7994 56.7092 29.1476 56.6333 29.5807 56.6333C30.4691 56.6333 30.9133 57.0641 30.9133 57.9257V60.082H30.2637V59.6802C30.0896 59.966 29.7838 60.1088 29.3463 60.1088C29.0248 60.1088 28.7659 60.0173 28.5695 59.8343C28.3775 59.6468 28.2815 59.4101 28.2815 59.1244C28.2815 58.7985 28.4043 58.5463 28.6498 58.3677C28.8954 58.1847 29.2391 58.0932 29.6811 58.0932H30.2436V57.899C30.2436 57.6668 30.1878 57.4927 30.0762 57.3766C29.9646 57.2561 29.7793 57.1958 29.5204 57.1958C29.1588 57.1958 28.8306 57.2963 28.536 57.4972ZM33.5988 56.8007V57.3967C33.38 57.2672 33.0987 57.2025 32.755 57.2025C32.5987 57.2025 32.4737 57.2382 32.38 57.3097C32.2907 57.3811 32.2461 57.4748 32.2461 57.5909C32.2461 57.6222 32.2483 57.6534 32.2527 57.6847C32.2617 57.7114 32.2751 57.7405 32.2929 57.7717C32.3108 57.7985 32.3264 57.8231 32.3398 57.8454C32.3577 57.8632 32.3844 57.8833 32.4202 57.9056C32.4559 57.928 32.4827 57.9481 32.5005 57.9659C32.5228 57.9793 32.5563 57.9972 32.601 58.0195C32.6501 58.0418 32.6858 58.0597 32.7081 58.0731C32.7304 58.082 32.7684 58.0998 32.822 58.1266C32.88 58.149 32.9202 58.1646 32.9425 58.1735C33.2059 58.2896 33.4113 58.4213 33.5586 58.5686C33.7104 58.7115 33.7863 58.9034 33.7863 59.1445C33.7863 59.4481 33.6791 59.6869 33.4648 59.861C33.2505 60.0307 32.9604 60.1155 32.5943 60.1155C32.1925 60.1155 31.8577 60.0485 31.5898 59.9146V59.2918C31.9023 59.4838 32.226 59.5798 32.5608 59.5798C32.7349 59.5798 32.8688 59.5441 32.9626 59.4726C33.0608 59.4012 33.1099 59.3075 33.1099 59.1914C33.1099 59.0932 33.072 59.0061 32.9961 58.9302C32.9202 58.8499 32.842 58.7918 32.7617 58.7561C32.6858 58.7159 32.5541 58.6557 32.3666 58.5753C31.8353 58.3565 31.5697 58.0351 31.5697 57.611C31.5697 57.3119 31.6813 57.0775 31.9045 56.9079C32.1277 56.7382 32.4068 56.6534 32.7416 56.6534C33.1077 56.6534 33.3934 56.7025 33.5988 56.8007ZM36.5656 57.9123H37.1549C37.4808 57.9123 37.7286 57.832 37.8982 57.6713C38.0723 57.5106 38.1594 57.2985 38.1594 57.0351C38.1594 56.7583 38.0723 56.5395 37.8982 56.3788C37.7241 56.2181 37.4719 56.1378 37.1415 56.1378H36.5656V57.9123ZM35.8759 55.5685H37.1683C37.6862 55.5685 38.0969 55.7069 38.4005 55.9837C38.704 56.2561 38.8558 56.6065 38.8558 57.0351C38.8558 57.4637 38.7018 57.8119 38.3938 58.0798C38.0902 58.3476 37.6951 58.4816 37.2085 58.4816H36.5656V60.082H35.8759V55.5685ZM41.1849 58.5686H40.676C40.426 58.5686 40.2362 58.6177 40.1068 58.7159C39.9818 58.8141 39.9193 58.9392 39.9193 59.0909C39.9193 59.2472 39.9684 59.37 40.0666 59.4593C40.1648 59.5485 40.3077 59.5932 40.4952 59.5932C40.7095 59.5932 40.8769 59.5351 40.9974 59.4191C41.1224 59.2985 41.1849 59.1423 41.1849 58.9503V58.5686ZM39.4773 57.4972V56.861C39.7407 56.7092 40.0889 56.6333 40.522 56.6333C41.4104 56.6333 41.8546 57.0641 41.8546 57.9257V60.082H41.205V59.6802C41.0309 59.966 40.7251 60.1088 40.2876 60.1088C39.9661 60.1088 39.7072 60.0173 39.5108 59.8343C39.3188 59.6468 39.2228 59.4101 39.2228 59.1244C39.2228 58.7985 39.3456 58.5463 39.5911 58.3677C39.8367 58.1847 40.1804 58.0932 40.6224 58.0932H41.1849V57.899C41.1849 57.6668 41.1291 57.4927 41.0175 57.3766C40.9059 57.2561 40.7206 57.1958 40.4617 57.1958C40.1001 57.1958 39.7719 57.2963 39.4773 57.4972ZM43.261 56.6869V57.2829C43.4262 56.8632 43.7231 56.6534 44.1517 56.6534C44.2142 56.6534 44.2834 56.6601 44.3592 56.6735V57.3163C44.2655 57.2762 44.1606 57.2561 44.0445 57.2561C43.8168 57.2561 43.6293 57.3565 43.482 57.5574C43.3347 57.7583 43.261 57.9972 43.261 58.274V60.082H42.6047V56.6869H43.261ZM44.7401 60.082V55.3944H45.3963V60.082H44.7401ZM46.1798 58.3074L47.5124 60.082H46.7289L45.4231 58.3074L46.7022 56.6869H47.4723L46.1798 58.3074ZM47.4388 60.9124L48.0816 59.3454H48.8919L48.0147 60.9124H47.4388ZM53.5609 56.1445H51.6925V57.6244H53.3332V58.2003H51.6925V60.082H51.0028V55.5685H53.5609V56.1445ZM54.8676 59.4726H56.7159V60.082H54.1779V55.5685H54.8676V59.4726ZM13.5268 67.082V62.5685H14.2098V67.082H13.5268ZM15.7345 63.6869V64.2695C15.9354 63.8498 16.288 63.64 16.7925 63.64C17.1274 63.64 17.393 63.7427 17.5894 63.948C17.7858 64.1534 17.8841 64.4324 17.8841 64.7851V67.082H17.2278V64.9391C17.2278 64.7025 17.1675 64.5217 17.047 64.3967C16.9309 64.2717 16.7747 64.2092 16.5782 64.2092C16.3461 64.2092 16.1474 64.3007 15.9822 64.4838C15.8171 64.6623 15.7345 64.9146 15.7345 65.2405V67.082H15.0782V63.6869H15.7345ZM19.2889 62.3476V64.2695C19.4808 63.8498 19.8313 63.64 20.3402 63.64C20.6706 63.64 20.9362 63.7427 21.1371 63.948C21.338 64.1534 21.4385 64.4391 21.4385 64.8052V67.082H20.7822V64.9391C20.7822 64.707 20.7219 64.5284 20.6014 64.4034C20.4853 64.2739 20.3313 64.2092 20.1393 64.2092C19.9161 64.2092 19.7175 64.294 19.5433 64.4637C19.3737 64.6333 19.2889 64.8923 19.2889 65.2405V67.082H18.6326V62.3476H19.2889ZM24.2964 65.14V65.0195C24.2875 64.765 24.2183 64.5641 24.0888 64.4168C23.9594 64.265 23.7741 64.1891 23.533 64.1891C23.3098 64.1891 23.1178 64.2717 22.9571 64.4369C22.7964 64.5976 22.696 64.832 22.6558 65.14H24.2964ZM24.7183 66.3119V66.9012C24.4683 67.0441 24.138 67.1155 23.7272 67.1155C23.2004 67.1155 22.7808 66.957 22.4683 66.6401C22.1558 66.3231 21.9995 65.9079 21.9995 65.3945C21.9995 64.8498 22.1424 64.4235 22.4281 64.1155C22.7138 63.8029 23.0777 63.6467 23.5196 63.6467C23.9527 63.6467 24.2964 63.7829 24.5509 64.0552C24.8054 64.323 24.9326 64.7114 24.9326 65.2204C24.9326 65.3588 24.9192 65.5039 24.8924 65.6557H22.6625C22.7071 65.9503 22.8321 66.1758 23.0375 66.332C23.2429 66.4883 23.5018 66.5664 23.8143 66.5664C24.1759 66.5664 24.4773 66.4816 24.7183 66.3119ZM26.2277 63.6869V64.2829C26.3929 63.8632 26.6897 63.6534 27.1183 63.6534C27.1808 63.6534 27.25 63.6601 27.3259 63.6735V64.3163C27.2322 64.2762 27.1272 64.2561 27.0112 64.2561C26.7835 64.2561 26.596 64.3565 26.4487 64.5574C26.3013 64.7583 26.2277 64.9972 26.2277 65.274V67.082H25.5714V63.6869H26.2277ZM27.7335 67.082V63.6869H28.3965V67.082H27.7335ZM27.767 62.9436C27.6911 62.8632 27.6531 62.765 27.6531 62.6489C27.6531 62.5328 27.6911 62.4346 27.767 62.3543C27.8473 62.2739 27.9456 62.2337 28.0616 62.2337C28.1777 62.2337 28.2759 62.2739 28.3563 62.3543C28.4366 62.4346 28.4768 62.5328 28.4768 62.6489C28.4768 62.7605 28.4366 62.8565 28.3563 62.9369C28.2759 63.0172 28.1777 63.0574 28.0616 63.0574C27.9456 63.0574 27.8473 63.0194 27.767 62.9436ZM30.0647 64.1958V66.0642C30.0647 66.3901 30.2209 66.553 30.5335 66.553C30.7165 66.553 30.8705 66.5039 30.9955 66.4057V66.995C30.8482 67.0753 30.6674 67.1155 30.4531 67.1155C29.7522 67.1155 29.4017 66.7606 29.4017 66.0508V64.1958H28.8727V63.6869H29.4017V62.8565H30.0647V63.6869H30.9553V64.1958H30.0647ZM33.373 65.5686H32.864C32.614 65.5686 32.4243 65.6177 32.2948 65.7159C32.1698 65.8141 32.1073 65.9392 32.1073 66.0909C32.1073 66.2472 32.1564 66.37 32.2546 66.4593C32.3528 66.5485 32.4957 66.5932 32.6832 66.5932C32.8975 66.5932 33.0649 66.5351 33.1855 66.4191C33.3105 66.2985 33.373 66.1423 33.373 65.9503V65.5686ZM31.6653 64.4972V63.861C31.9287 63.7092 32.277 63.6333 32.71 63.6333C33.5984 63.6333 34.0426 64.0641 34.0426 64.9257V67.082H33.393V66.6802C33.2189 66.966 32.9131 67.1088 32.4756 67.1088C32.1542 67.1088 31.8952 67.0173 31.6988 66.8343C31.5068 66.6468 31.4109 66.4101 31.4109 66.1244C31.4109 65.7985 31.5336 65.5463 31.7792 65.3677C32.0247 65.1847 32.3685 65.0932 32.8104 65.0932H33.373V64.899C33.373 64.6668 33.3172 64.4927 33.2055 64.3766C33.0939 64.2561 32.9087 64.1958 32.6497 64.1958C32.2881 64.1958 31.96 64.2963 31.6653 64.4972ZM35.449 63.6869V64.2695C35.6499 63.8498 36.0026 63.64 36.5071 63.64C36.8419 63.64 37.1076 63.7427 37.304 63.948C37.5004 64.1534 37.5986 64.4324 37.5986 64.7851V67.082H36.9424V64.9391C36.9424 64.7025 36.8821 64.5217 36.7616 64.3967C36.6455 64.2717 36.4892 64.2092 36.2928 64.2092C36.0607 64.2092 35.862 64.3007 35.6968 64.4838C35.5316 64.6623 35.449 64.9146 35.449 65.2405V67.082H34.7928V63.6869H35.449ZM38.836 65.4012C38.845 65.745 38.9499 66.0284 39.1508 66.2517C39.3517 66.4704 39.6329 66.5798 39.9946 66.5798C40.2624 66.5798 40.5124 66.5061 40.7446 66.3588V66.9481C40.5258 67.082 40.2468 67.149 39.9075 67.149C39.3762 67.149 38.9521 66.9816 38.6351 66.6468C38.3182 66.3119 38.1597 65.8945 38.1597 65.3945C38.1597 64.9079 38.3182 64.4927 38.6351 64.1489C38.9566 63.8007 39.3896 63.6266 39.9343 63.6266C40.2289 63.6266 40.499 63.6891 40.7446 63.8141V64.4168C40.5258 64.2784 40.278 64.2092 40.0012 64.2092C39.6486 64.2092 39.3651 64.3208 39.1508 64.544C38.941 64.7673 38.836 65.053 38.836 65.4012ZM43.4748 65.14V65.0195C43.4658 64.765 43.3967 64.5641 43.2672 64.4168C43.1377 64.265 42.9524 64.1891 42.7114 64.1891C42.4882 64.1891 42.2962 64.2717 42.1355 64.4369C41.9747 64.5976 41.8743 64.832 41.8341 65.14H43.4748ZM43.8967 66.3119V66.9012C43.6467 67.0441 43.3163 67.1155 42.9056 67.1155C42.3788 67.1155 41.9591 66.957 41.6466 66.6401C41.3341 66.3231 41.1779 65.9079 41.1779 65.3945C41.1779 64.8498 41.3207 64.4235 41.6064 64.1155C41.8922 63.8029 42.256 63.6467 42.698 63.6467C43.131 63.6467 43.4748 63.7829 43.7292 64.0552C43.9837 64.323 44.111 64.7114 44.111 65.2204C44.111 65.3588 44.0976 65.5039 44.0708 65.6557H41.8408C41.8855 65.9503 42.0105 66.1758 42.2158 66.332C42.4212 66.4883 42.6801 66.5664 42.9926 66.5664C43.3542 66.5664 43.6556 66.4816 43.8967 66.3119Z" fill="#83899D"/>
<line x1="1.61328" y1="78.6641" x2="97.6133" y2="78.6641" stroke="#1AD079" stroke-width="0.5"/>
<rect x="0.613281" y="78.9141" width="97" height="18" fill="#C1EED8"/>
<path d="M43.9492 87.4141C43.6731 87.4141 43.4492 87.6379 43.4492 87.9141C43.4492 88.1902 43.6731 88.4141 43.9492 88.4141L43.9492 87.4141ZM52.1159 88.4141C52.392 88.4141 52.6159 88.1902 52.6159 87.9141C52.6159 87.6379 52.392 87.4141 52.1159 87.4141L52.1159 88.4141ZM43.9492 88.4141L52.1159 88.4141L52.1159 87.4141L43.9492 87.4141L43.9492 88.4141Z" fill="#07133B"/>
<path d="M49.5193 84.612C49.3072 84.4352 48.9919 84.4639 48.8151 84.676C48.6383 84.8881 48.667 85.2034 48.8791 85.3802L49.5193 84.612ZM52.6992 87.9128L53.0193 88.2969C53.1333 88.2019 53.1992 88.0612 53.1992 87.9128C53.1992 87.7644 53.1333 87.6236 53.0193 87.5286L52.6992 87.9128ZM48.8791 90.4453C48.667 90.6221 48.6383 90.9374 48.8151 91.1495C48.9919 91.3617 49.3072 91.3903 49.5193 91.2135L48.8791 90.4453ZM48.8791 85.3802L52.3791 88.2969L53.0193 87.5286L49.5193 84.612L48.8791 85.3802ZM52.3791 87.5286L48.8791 90.4453L49.5193 91.2135L53.0193 88.2969L52.3791 87.5286Z" fill="#07133B"/>
</svg>
