<svg width="193" height="84" viewBox="0 0 193 84" fill="none" xmlns="http://www.w3.org/2000/svg">
<g clip-path="url(#clip0_2_15591)">
<g filter="url(#filter0_dd_2_15591)">
<g clip-path="url(#clip1_2_15591)">
<rect x="27.209" y="0.417969" width="139.035" height="34.7587" rx="6" fill="white"/>
<rect x="27.209" y="0.417969" width="139.035" height="34.7587" rx="6.83323" fill="white"/>
<rect x="46.1787" y="16.6445" width="48.6621" height="3.47587" rx="0.868967" fill="#07133B"/>
<rect x="103.528" y="16.6436" width="43.4483" height="3.47587" rx="0.868967" fill="#C1C4CE"/>
</g>
</g>
<g filter="url(#filter1_dd_2_15591)">
<g clip-path="url(#clip2_2_15591)">
<rect x="27.2139" y="49.082" width="139.035" height="34.7587" rx="6" fill="white"/>
<rect x="27.2139" y="49.082" width="139.035" height="34.7587" rx="6.83323" fill="white"/>
<rect x="121.755" y="64.665" width="27.8069" height="3.47587" rx="0.868967" fill="#07133B"/>
<rect x="43.8896" y="64.6689" width="69.5173" height="3.47587" rx="0.868967" fill="#C1C4CE"/>
</g>
</g>
<path d="M171.538 21.7031C171.278 21.6087 170.991 21.7424 170.897 22.0019C170.802 22.2614 170.936 22.5483 171.196 22.6428L171.538 21.7031ZM163.109 66.0071C162.833 66.0016 162.605 66.221 162.6 66.4971C162.594 66.7732 162.813 67.0014 163.09 67.0069L163.109 66.0071ZM164.901 66.9719C165.177 66.9558 165.387 66.7192 165.371 66.4436C165.355 66.1679 165.119 65.9575 164.843 65.9736L164.901 66.9719ZM168.277 65.5028C168.007 65.5614 167.836 65.8277 167.894 66.0975C167.953 66.3674 168.219 66.5386 168.489 66.48L168.277 65.5028ZM171.957 65.4397C172.215 65.3402 172.343 65.0508 172.244 64.7932C172.144 64.5356 171.855 64.4074 171.597 64.5069L171.957 65.4397ZM174.725 63.0123C174.486 63.1502 174.403 63.456 174.541 63.6952C174.679 63.9344 174.985 64.0166 175.224 63.8787L174.725 63.0123ZM178.212 61.8335C178.427 61.6604 178.461 61.3457 178.288 61.1305C178.115 60.9154 177.8 60.8814 177.585 61.0545L178.212 61.8335ZM180.108 58.6784C179.922 58.8828 179.937 59.199 180.142 59.3847C180.346 59.5704 180.663 59.5552 180.848 59.3508L180.108 58.6784ZM183.066 56.488C183.218 56.2572 183.154 55.9472 182.923 55.7956C182.692 55.6441 182.382 55.7083 182.23 55.9391L183.066 56.488ZM183.902 52.9026C183.788 53.1541 183.899 53.4504 184.151 53.5644C184.402 53.6784 184.698 53.567 184.812 53.3155L183.902 52.9026ZM186.057 49.8905C186.131 49.6245 185.976 49.3488 185.71 49.2747C185.443 49.2006 185.168 49.3563 185.094 49.6223L186.057 49.8905ZM185.767 46.1797C185.735 46.454 185.932 46.7019 186.206 46.7334C186.481 46.7649 186.729 46.568 186.76 46.2937L185.767 46.1797ZM186.889 42.6306C186.877 42.3547 186.643 42.1409 186.367 42.1531C186.091 42.1652 185.878 42.3987 185.89 42.6746L186.889 42.6306ZM185.46 39.1931C185.515 39.4637 185.779 39.6382 186.05 39.5828C186.32 39.5275 186.495 39.2634 186.439 38.9928L185.46 39.1931ZM185.426 35.4705C185.33 35.2119 185.041 35.0807 184.783 35.1775C184.524 35.2744 184.393 35.5625 184.49 35.8211L185.426 35.4705ZM183.007 32.6411C183.143 32.8815 183.448 32.9662 183.688 32.8304C183.929 32.6945 184.013 32.3895 183.878 32.1491L183.007 32.6411ZM181.83 29.109C181.659 28.8927 181.344 28.8566 181.128 29.0283C180.912 29.2 180.876 29.5145 181.047 29.7307L181.83 29.109ZM178.657 27.1634C178.86 27.35 179.177 27.3363 179.363 27.1328C179.55 26.9293 179.536 26.613 179.333 26.4264L178.657 27.1634ZM176.444 24.1703C176.214 24.0181 175.903 24.0814 175.751 24.3118C175.599 24.5422 175.662 24.8524 175.893 25.0046L176.444 24.1703ZM172.823 23.3073C173.074 23.4216 173.371 23.3104 173.485 23.059C173.599 22.8076 173.488 22.5112 173.237 22.3969L172.823 23.3073ZM163.09 67.0069C163.696 67.0189 164.3 67.007 164.901 66.9719L164.843 65.9736C164.268 66.0072 163.69 66.0185 163.109 66.0071L163.09 67.0069ZM168.489 66.48C169.673 66.2227 170.832 65.8743 171.957 65.4397L171.597 64.5069C170.52 64.923 169.41 65.2565 168.277 65.5028L168.489 66.48ZM175.224 63.8787C176.269 63.2766 177.268 62.5932 178.212 61.8335L177.585 61.0545C176.682 61.7817 175.725 62.4358 174.725 63.0123L175.224 63.8787ZM180.848 59.3508C181.654 58.4634 182.397 57.5077 183.066 56.488L182.23 55.9391C181.59 56.9148 180.879 57.8293 180.108 58.6784L180.848 59.3508ZM184.812 53.3155C185.06 52.7696 185.288 52.2103 185.497 51.6379L184.557 51.2959C184.357 51.8442 184.139 52.38 183.902 52.9026L184.812 53.3155ZM185.497 51.6379C185.708 51.0581 185.894 50.4752 186.057 49.8905L185.094 49.6223C184.938 50.1821 184.759 50.7404 184.557 51.2959L185.497 51.6379ZM186.76 46.2937C186.901 45.0671 186.942 43.8426 186.889 42.6306L185.89 42.6746C185.941 43.8344 185.901 45.006 185.767 46.1797L186.76 46.2937ZM186.439 38.9928C186.194 37.7912 185.854 36.6135 185.426 35.4705L184.49 35.8211C184.9 36.9155 185.225 38.043 185.46 39.1931L186.439 38.9928ZM183.878 32.1491C183.277 31.0865 182.593 30.0695 181.83 29.109L181.047 29.7307C181.777 30.6502 182.432 31.6238 183.007 32.6411L183.878 32.1491ZM179.333 26.4264C178.439 25.6064 177.474 24.8509 176.444 24.1703L175.893 25.0046C176.878 25.6559 177.801 26.3787 178.657 27.1634L179.333 26.4264ZM173.237 22.3969C172.684 22.1458 172.118 21.9141 171.538 21.7031L171.196 22.6428C171.751 22.845 172.294 23.0668 172.823 23.3073L173.237 22.3969Z" fill="#1AD079"/>
<path d="M158.258 66.0466L158.023 65.6052C157.874 65.6844 157.775 65.8333 157.76 66.0012C157.744 66.1691 157.815 66.3335 157.947 66.4383L158.258 66.0466ZM161.277 69.0811C161.493 69.2528 161.808 69.2166 161.98 69.0003C162.151 68.784 162.115 68.4695 161.899 68.2978L161.277 69.0811ZM162.485 64.3643C162.728 64.2346 162.821 63.9318 162.691 63.688C162.561 63.4442 162.259 63.3517 162.015 63.4814L162.485 64.3643ZM157.947 66.4383L161.277 69.0811L161.899 68.2978L158.568 65.655L157.947 66.4383ZM158.492 66.4881L162.485 64.3643L162.015 63.4814L158.023 65.6052L158.492 66.4881Z" fill="#1AD079"/>
<path d="M22.1966 63.0606C22.4561 63.155 22.743 63.0212 22.8375 62.7617C22.9319 62.5022 22.7981 62.2153 22.5386 62.1209L22.1966 63.0606ZM30.6251 18.7566C30.9012 18.7621 31.1294 18.5427 31.1349 18.2666C31.1403 17.9905 30.9209 17.7623 30.6449 17.7568L30.6251 18.7566ZM28.833 17.7918C28.5573 17.8079 28.3469 18.0444 28.363 18.3201C28.3791 18.5958 28.6157 18.8062 28.8913 18.7901L28.833 17.7918ZM25.4576 19.2609C25.7275 19.2023 25.8987 18.936 25.84 18.6661C25.7814 18.3963 25.5151 18.2251 25.2452 18.2837L25.4576 19.2609ZM21.777 19.3239C21.5194 19.4234 21.3913 19.7129 21.4908 19.9705C21.5903 20.2281 21.8798 20.3562 22.1374 20.2567L21.777 19.3239ZM19.0096 21.7514C19.2489 21.6135 19.331 21.3077 19.1931 21.0685C19.0552 20.8292 18.7495 20.7471 18.5102 20.885L19.0096 21.7514ZM15.5223 22.9301C15.3072 23.1033 15.2731 23.418 15.4463 23.6331C15.6194 23.8483 15.9341 23.8823 16.1493 23.7092L15.5223 22.9301ZM13.6264 26.0853C13.8121 25.8809 13.7969 25.5646 13.5925 25.379C13.3881 25.1933 13.0719 25.2085 12.8862 25.4129L13.6264 26.0853ZM10.6681 28.2757C10.5165 28.5065 10.5808 28.8165 10.8116 28.9681C11.0424 29.1196 11.3524 29.0554 11.504 28.8245L10.6681 28.2757ZM9.83277 31.8611C9.94678 31.6096 9.83532 31.3133 9.58381 31.1992C9.3323 31.0852 9.03599 31.1967 8.92198 31.4482L9.83277 31.8611ZM7.6773 34.8732C7.60324 35.1392 7.75885 35.4149 8.02488 35.489C8.2909 35.563 8.5666 35.4074 8.64066 35.1414L7.6773 34.8732ZM7.96763 38.584C7.99911 38.3096 7.80222 38.0617 7.52788 38.0303C7.25354 37.9988 7.00562 38.1957 6.97415 38.47L7.96763 38.584ZM6.84556 42.1331C6.85772 42.409 7.09122 42.6227 7.36709 42.6106C7.64296 42.5984 7.85675 42.3649 7.8446 42.0891L6.84556 42.1331ZM8.27475 45.5706C8.21944 45.3 7.95528 45.1255 7.68474 45.1808C7.41419 45.2361 7.2397 45.5003 7.29501 45.7708L8.27475 45.5706ZM8.30796 49.2932C8.40479 49.5518 8.69293 49.683 8.95154 49.5861C9.21015 49.4893 9.3413 49.2012 9.24447 48.9426L8.30796 49.2932ZM10.7273 52.1226C10.5915 51.8822 10.2864 51.7974 10.046 51.9333C9.80564 52.0692 9.72089 52.3742 9.85676 52.6146L10.7273 52.1226ZM11.9039 55.6547C12.0756 55.871 12.3902 55.9071 12.6064 55.7354C12.8227 55.5637 12.8588 55.2492 12.6871 55.0329L11.9039 55.6547ZM15.0776 57.6003C14.8741 57.4137 14.5578 57.4273 14.3712 57.6309C14.1845 57.8344 14.1982 58.1507 14.4017 58.3373L15.0776 57.6003ZM17.2904 60.5934C17.5208 60.7456 17.831 60.6823 17.9832 60.4519C18.1355 60.2215 18.0721 59.9113 17.8417 59.7591L17.2904 60.5934ZM20.9115 61.4564C20.6601 61.3421 20.3637 61.4533 20.2495 61.7047C20.1352 61.9561 20.2464 62.2525 20.4978 62.3667L20.9115 61.4564ZM30.6449 17.7568C30.0384 17.7448 29.4341 17.7567 28.833 17.7918L28.8913 18.7901C29.4665 18.7565 30.0448 18.7451 30.6251 18.7566L30.6449 17.7568ZM25.2452 18.2837C24.0616 18.541 22.902 18.8893 21.777 19.3239L22.1374 20.2567C23.2144 19.8407 24.3246 19.5071 25.4576 19.2609L25.2452 18.2837ZM18.5102 20.885C17.4657 21.4871 16.4662 22.1704 15.5223 22.9301L16.1493 23.7092C17.0528 22.982 18.0096 22.3278 19.0096 21.7514L18.5102 20.885ZM12.8862 25.4129C12.0803 26.3002 11.3376 27.256 10.6681 28.2757L11.504 28.8245C12.1446 27.8489 12.8552 26.9343 13.6264 26.0853L12.8862 25.4129ZM8.92198 31.4482C8.67454 31.994 8.44612 32.5534 8.23779 33.1258L9.17748 33.4678C9.37708 32.9194 9.59585 32.3837 9.83277 31.8611L8.92198 31.4482ZM8.23779 33.1258C8.02676 33.7056 7.8401 34.2884 7.6773 34.8732L8.64066 35.1414C8.79653 34.5815 8.9753 34.0233 9.17748 33.4678L8.23779 33.1258ZM6.97415 38.47C6.83343 39.6966 6.79216 40.921 6.84556 42.1331L7.8446 42.0891C7.79349 40.9293 7.83298 39.7577 7.96763 38.584L6.97415 38.47ZM7.29501 45.7708C7.54065 46.9724 7.88 48.1502 8.30796 49.2932L9.24447 48.9426C8.83473 47.8482 8.50987 46.7207 8.27475 45.5706L7.29501 45.7708ZM9.85676 52.6146C10.4573 53.6772 11.1414 54.6942 11.9039 55.6547L12.6871 55.0329C11.9572 54.1135 11.3023 53.1399 10.7273 52.1226L9.85676 52.6146ZM14.4017 58.3373C15.2959 59.1573 16.2604 59.9127 17.2904 60.5934L17.8417 59.7591C16.8561 59.1078 15.9332 58.3849 15.0776 57.6003L14.4017 58.3373ZM20.4978 62.3667C21.0503 62.6179 21.6168 62.8495 22.1966 63.0606L22.5386 62.1209C21.9831 61.9187 21.4406 61.6968 20.9115 61.4564L20.4978 62.3667Z" fill="#1AD079"/>
<path d="M35.4767 18.717L35.7115 19.1585C35.8604 19.0793 35.9593 18.9304 35.9746 18.7624C35.99 18.5945 35.9196 18.4302 35.7875 18.3254L35.4767 18.717ZM32.4573 15.6826C32.241 15.5109 31.9265 15.5471 31.7548 15.7634C31.5832 15.9797 31.6194 16.2942 31.8357 16.4659L32.4573 15.6826ZM31.2498 20.3994C31.006 20.5291 30.9135 20.8319 31.0432 21.0756C31.1729 21.3194 31.4757 21.4119 31.7195 21.2822L31.2498 20.3994ZM35.7875 18.3254L32.4573 15.6826L31.8357 16.4659L35.1659 19.1087L35.7875 18.3254ZM35.2419 18.2756L31.2498 20.3994L31.7195 21.2822L35.7115 19.1585L35.2419 18.2756Z" fill="#1AD079"/>
</g>
<defs>
<filter id="filter0_dd_2_15591" x="-12.4237" y="-6.41526" width="218.3" height="70.2916" filterUnits="userSpaceOnUse" color-interpolation-filters="sRGB">
<feFlood flood-opacity="0" result="BackgroundImageFix"/>
<feColorMatrix in="SourceAlpha" type="matrix" values="0 0 0 0 0 0 0 0 0 0 0 0 0 0 0 0 0 0 127 0" result="hardAlpha"/>
<feMorphology radius="6.83323" operator="erode" in="SourceAlpha" result="effect1_dropShadow_2_15591"/>
<feOffset dx="-21.8663" dy="10.9332"/>
<feGaussianBlur stdDeviation="12.2998"/>
<feComposite in2="hardAlpha" operator="out"/>
<feColorMatrix type="matrix" values="0 0 0 0 0 0 0 0 0 0 0 0 0 0 0 0 0 0 0.03 0"/>
<feBlend mode="normal" in2="BackgroundImageFix" result="effect1_dropShadow_2_15591"/>
<feColorMatrix in="SourceAlpha" type="matrix" values="0 0 0 0 0 0 0 0 0 0 0 0 0 0 0 0 0 0 127 0" result="hardAlpha"/>
<feMorphology radius="6.83323" operator="erode" in="SourceAlpha" result="effect2_dropShadow_2_15591"/>
<feOffset dx="21.8663" dy="10.9332"/>
<feGaussianBlur stdDeviation="12.2998"/>
<feComposite in2="hardAlpha" operator="out"/>
<feColorMatrix type="matrix" values="0 0 0 0 0 0 0 0 0 0 0 0 0 0 0 0 0 0 0.04 0"/>
<feBlend mode="normal" in2="effect1_dropShadow_2_15591" result="effect2_dropShadow_2_15591"/>
<feBlend mode="normal" in="SourceGraphic" in2="effect2_dropShadow_2_15591" result="shape"/>
</filter>
<filter id="filter1_dd_2_15591" x="-12.4189" y="42.2488" width="229.834" height="70.2916" filterUnits="userSpaceOnUse" color-interpolation-filters="sRGB">
<feFlood flood-opacity="0" result="BackgroundImageFix"/>
<feColorMatrix in="SourceAlpha" type="matrix" values="0 0 0 0 0 0 0 0 0 0 0 0 0 0 0 0 0 0 127 0" result="hardAlpha"/>
<feMorphology radius="6.83323" operator="erode" in="SourceAlpha" result="effect1_dropShadow_2_15591"/>
<feOffset dx="-21.8663" dy="10.9332"/>
<feGaussianBlur stdDeviation="12.2998"/>
<feComposite in2="hardAlpha" operator="out"/>
<feColorMatrix type="matrix" values="0 0 0 0 0 0 0 0 0 0 0 0 0 0 0 0 0 0 0.03 0"/>
<feBlend mode="normal" in2="BackgroundImageFix" result="effect1_dropShadow_2_15591"/>
<feColorMatrix in="SourceAlpha" type="matrix" values="0 0 0 0 0 0 0 0 0 0 0 0 0 0 0 0 0 0 127 0" result="hardAlpha"/>
<feMorphology radius="6.83323" operator="erode" in="SourceAlpha" result="effect2_dropShadow_2_15591"/>
<feOffset dx="38" dy="10.9332"/>
<feGaussianBlur stdDeviation="10"/>
<feComposite in2="hardAlpha" operator="out"/>
<feColorMatrix type="matrix" values="0 0 0 0 0 0 0 0 0 0 0 0 0 0 0 0 0 0 0.04 0"/>
<feBlend mode="normal" in2="effect1_dropShadow_2_15591" result="effect2_dropShadow_2_15591"/>
<feBlend mode="normal" in="SourceGraphic" in2="effect2_dropShadow_2_15591" result="shape"/>
</filter>
<clipPath id="clip0_2_15591">
<rect width="191.952" height="83.4229" fill="white" transform="translate(0.891602 0.417969)"/>
</clipPath>
<clipPath id="clip1_2_15591">
<rect x="27.209" y="0.417969" width="139.035" height="34.7587" rx="6" fill="white"/>
</clipPath>
<clipPath id="clip2_2_15591">
<rect x="27.2139" y="49.082" width="139.035" height="34.7587" rx="6" fill="white"/>
</clipPath>
</defs>
</svg>
