<svg width="88" height="27" viewBox="0 0 88 27" fill="none" xmlns="http://www.w3.org/2000/svg">
<rect x="0.96875" y="0.367188" width="87" height="26" rx="5" fill="white"/>
<path d="M12.9668 13.1082H14.9108L14.8118 12.8022C14.5838 12.0942 14.3978 11.5092 14.2538 11.0472C14.1098 10.5792 14.0228 10.2882 13.9928 10.1742L13.9478 10.0032C13.8818 10.2852 13.5878 11.2182 13.0658 12.8022L12.9668 13.1082ZM15.6398 15.3672L15.1628 13.8822H12.7148L12.2288 15.3672H11.2478L13.3447 9.30119H14.5598L16.6298 15.3672H15.6398ZM18.0082 13.1082C18.0202 13.5702 18.1612 13.9512 18.4312 14.2512C18.7012 14.5452 19.0792 14.6922 19.5652 14.6922C19.9252 14.6922 20.2612 14.5932 20.5732 14.3952V15.1872C20.2792 15.3672 19.9042 15.4572 19.4482 15.4572C18.7342 15.4572 18.1642 15.2322 17.7382 14.7822C17.3122 14.3322 17.0992 13.7712 17.0992 13.0992C17.0992 12.4452 17.3122 11.8872 17.7382 11.4252C18.1702 10.9572 18.7522 10.7232 19.4842 10.7232C19.8802 10.7232 20.2432 10.8072 20.5732 10.9752V11.7852C20.2792 11.5992 19.9462 11.5062 19.5742 11.5062C19.1002 11.5062 18.7192 11.6562 18.4312 11.9562C18.1492 12.2562 18.0082 12.6402 18.0082 13.1082ZM22.5505 11.4882V13.9992C22.5505 14.4372 22.7605 14.6562 23.1805 14.6562C23.4265 14.6562 23.6335 14.5902 23.8015 14.4582V15.2502C23.6035 15.3582 23.3605 15.4122 23.0725 15.4122C22.1305 15.4122 21.6595 14.9352 21.6595 13.9812V11.4882H20.9485V10.8042H21.6595V9.68819H22.5505V10.8042H23.7475V11.4882H22.5505ZM24.6297 15.3672V10.8042H25.5207V15.3672H24.6297ZM24.6747 9.80519C24.5727 9.69719 24.5217 9.56519 24.5217 9.40919C24.5217 9.25319 24.5727 9.12119 24.6747 9.01319C24.7827 8.90519 24.9147 8.85119 25.0707 8.85119C25.2267 8.85119 25.3587 8.90519 25.4667 9.01319C25.5747 9.12119 25.6287 9.25319 25.6287 9.40919C25.6287 9.55919 25.5747 9.68819 25.4667 9.79619C25.3587 9.90419 25.2267 9.95819 25.0707 9.95819C24.9147 9.95819 24.7827 9.90719 24.6747 9.80519ZM27.7897 15.3672L26.1697 10.8042H27.0967L27.7177 12.7302C27.8617 13.1742 27.9817 13.5582 28.0777 13.8822C28.1797 14.2062 28.2427 14.4192 28.2667 14.5212L28.3027 14.6742C28.3567 14.3802 28.5547 13.7322 28.8967 12.7302L29.5357 10.8042H30.4538L28.7977 15.3672H27.7897ZM33.8978 12.7572V12.5952C33.8858 12.2532 33.7928 11.9832 33.6188 11.7852C33.4448 11.5812 33.1958 11.4792 32.8718 11.4792C32.5718 11.4792 32.3138 11.5902 32.0978 11.8122C31.8818 12.0282 31.7468 12.3432 31.6928 12.7572H33.8978ZM34.4648 14.3322V15.1242C34.1288 15.3162 33.6848 15.4122 33.1328 15.4122C32.4248 15.4122 31.8608 15.1992 31.4408 14.7732C31.0208 14.3472 30.8108 13.7892 30.8108 13.0992C30.8108 12.3672 31.0028 11.7942 31.3868 11.3802C31.7708 10.9602 32.2598 10.7502 32.8538 10.7502C33.4358 10.7502 33.8978 10.9332 34.2398 11.2992C34.5818 11.6592 34.7528 12.1812 34.7528 12.8652C34.7528 13.0512 34.7348 13.2462 34.6988 13.4502H31.7018C31.7618 13.8462 31.9298 14.1492 32.2058 14.3592C32.4818 14.5692 32.8298 14.6742 33.2498 14.6742C33.7358 14.6742 34.1408 14.5602 34.4648 14.3322ZM37.6822 15.3672V9.00419H38.5732V15.3672H37.6822ZM42.5072 12.7572V12.5952C42.4952 12.2532 42.4022 11.9832 42.2282 11.7852C42.0542 11.5812 41.8052 11.4792 41.4812 11.4792C41.1812 11.4792 40.9232 11.5902 40.7072 11.8122C40.4912 12.0282 40.3562 12.3432 40.3022 12.7572H42.5072ZM43.0742 14.3322V15.1242C42.7382 15.3162 42.2942 15.4122 41.7422 15.4122C41.0342 15.4122 40.4702 15.1992 40.0502 14.7732C39.6302 14.3472 39.4202 13.7892 39.4202 13.0992C39.4202 12.3672 39.6122 11.7942 39.9962 11.3802C40.3802 10.9602 40.8692 10.7502 41.4632 10.7502C42.0452 10.7502 42.5072 10.9332 42.8492 11.2992C43.1912 11.6592 43.3622 12.1812 43.3622 12.8652C43.3622 13.0512 43.3442 13.2462 43.3082 13.4502H40.3112C40.3712 13.8462 40.5392 14.1492 40.8152 14.3592C41.0912 14.5692 41.4392 14.6742 41.8592 14.6742C42.3452 14.6742 42.7502 14.5602 43.0742 14.3322ZM46.6237 13.3332H45.9397C45.6037 13.3332 45.3487 13.3992 45.1747 13.5312C45.0067 13.6632 44.9227 13.8312 44.9227 14.0352C44.9227 14.2452 44.9887 14.4102 45.1207 14.5302C45.2527 14.6502 45.4447 14.7102 45.6967 14.7102C45.9847 14.7102 46.2097 14.6322 46.3717 14.4762C46.5397 14.3142 46.6237 14.1042 46.6237 13.8462V13.3332ZM44.3287 11.8932V11.0382C44.6827 10.8342 45.1507 10.7322 45.7327 10.7322C46.9267 10.7322 47.5237 11.3112 47.5237 12.4692V15.3672H46.6507V14.8272C46.4167 15.2112 46.0057 15.4032 45.4177 15.4032C44.9857 15.4032 44.6377 15.2802 44.3737 15.0342C44.1157 14.7822 43.9867 14.4642 43.9867 14.0802C43.9867 13.6422 44.1517 13.3032 44.4817 13.0632C44.8117 12.8172 45.2737 12.6942 45.8677 12.6942H46.6237V12.4332C46.6237 12.1212 46.5487 11.8872 46.3987 11.7312C46.2487 11.5692 45.9997 11.4882 45.6517 11.4882C45.1657 11.4882 44.7247 11.6232 44.3287 11.8932ZM50.3769 14.6562C50.7249 14.6562 51.0189 14.5242 51.2589 14.2602C51.4989 13.9962 51.6189 13.5942 51.6189 13.0542C51.6189 12.5322 51.4929 12.1452 51.2409 11.8932C50.9949 11.6412 50.7159 11.5152 50.4039 11.5152C50.0499 11.5152 49.7589 11.6562 49.5309 11.9382C49.3029 12.2142 49.1889 12.6102 49.1889 13.1262C49.1889 13.5822 49.2999 13.9512 49.5219 14.2332C49.7499 14.5152 50.0349 14.6562 50.3769 14.6562ZM51.6189 9.00419H52.5099V15.3672H51.6189V14.6742C51.3009 15.1782 50.8359 15.4302 50.2239 15.4302C49.6239 15.4302 49.1499 15.2052 48.8019 14.7552C48.4539 14.2992 48.2799 13.7502 48.2799 13.1082C48.2799 12.3942 48.4629 11.8212 48.8289 11.3892C49.1949 10.9572 49.6659 10.7412 50.2419 10.7412C50.8359 10.7412 51.2949 10.9932 51.6189 11.4972V9.00419ZM56.1736 10.9572V11.7582C55.8796 11.5842 55.5016 11.4972 55.0396 11.4972C54.8296 11.4972 54.6616 11.5452 54.5356 11.6412C54.4156 11.7372 54.3556 11.8632 54.3556 12.0192C54.3556 12.0612 54.3586 12.1032 54.3646 12.1452C54.3766 12.1812 54.3946 12.2202 54.4186 12.2622C54.4426 12.2982 54.4636 12.3312 54.4816 12.3612C54.5056 12.3852 54.5416 12.4122 54.5896 12.4422C54.6376 12.4722 54.6736 12.4992 54.6976 12.5232C54.7276 12.5412 54.7726 12.5652 54.8326 12.5952C54.8986 12.6252 54.9466 12.6492 54.9766 12.6672C55.0066 12.6792 55.0576 12.7032 55.1296 12.7392C55.2076 12.7692 55.2616 12.7902 55.2916 12.8022C55.6456 12.9582 55.9216 13.1352 56.1196 13.3332C56.3236 13.5252 56.4256 13.7832 56.4256 14.1072C56.4256 14.5152 56.2816 14.8362 55.9936 15.0702C55.7056 15.2982 55.3156 15.4122 54.8236 15.4122C54.2836 15.4122 53.8336 15.3222 53.4736 15.1422V14.3052C53.8936 14.5632 54.3286 14.6922 54.7786 14.6922C55.0126 14.6922 55.1926 14.6442 55.3186 14.5482C55.4506 14.4522 55.5166 14.3262 55.5166 14.1702C55.5166 14.0382 55.4656 13.9212 55.3636 13.8192C55.2616 13.7112 55.1566 13.6332 55.0486 13.5852C54.9466 13.5312 54.7696 13.4502 54.5176 13.3422C53.8036 13.0482 53.4466 12.6162 53.4466 12.0462C53.4466 11.6442 53.5966 11.3292 53.8966 11.1012C54.1966 10.8732 54.5716 10.7592 55.0216 10.7592C55.5136 10.7592 55.8976 10.8252 56.1736 10.9572Z" fill="#07133B"/>
<circle cx="73.9688" cy="13.3672" r="2" fill="#1AD079"/>
</svg>
