<svg width="40" height="40" viewBox="0 0 40 40" fill="none" xmlns="http://www.w3.org/2000/svg">
<path d="M5 19.15C4.53056 19.15 4.15 19.5306 4.15 20C4.15 20.4694 4.53056 20.85 5 20.85L5 19.15ZM35 20.85C35.4694 20.85 35.85 20.4694 35.85 20C35.85 19.5306 35.4694 19.15 35 19.15L35 20.85ZM5 20.85L35 20.85L35 19.15L5 19.15L5 20.85Z" fill="white"/>
<path d="M29.5442 14.347C29.1835 14.0465 28.6475 14.0952 28.347 14.4558C28.0465 14.8165 28.0952 15.3525 28.4558 15.653L29.5442 14.347ZM35 20L35.5442 20.653C35.738 20.4915 35.85 20.2523 35.85 20C35.85 19.7477 35.738 19.5085 35.5442 19.347L35 20ZM28.4558 24.347C28.0952 24.6475 28.0465 25.1835 28.347 25.5442C28.6475 25.9048 29.1835 25.9535 29.5442 25.653L28.4558 24.347ZM28.4558 15.653L34.4558 20.653L35.5442 19.347L29.5442 14.347L28.4558 15.653ZM34.4558 19.347L28.4558 24.347L29.5442 25.653L35.5442 20.653L34.4558 19.347Z" fill="white"/>
</svg>
