<svg width="184" height="184" viewBox="0 0 184 184" fill="none" xmlns="http://www.w3.org/2000/svg">
<rect x="0.597656" y="0.632812" width="183.131" height="183.131" rx="10" fill="white"/>
<rect x="0.597656" y="0.632812" width="183.131" height="183.131" rx="13.6665" fill="white"/>
<path d="M23.0098 31.6377V30.2459C23.4103 30.49 23.8107 30.6121 24.2112 30.6121C25.0121 30.6121 25.4125 30.1873 25.4125 29.3375V22.0709H26.9215V29.2789C26.9215 30.1873 26.6969 30.8612 26.2476 31.3007C25.8081 31.7304 25.2123 31.9453 24.4602 31.9453C23.8547 31.9453 23.3712 31.8428 23.0098 31.6377ZM31.7878 32.0772C30.6939 32.0772 29.8345 31.7207 29.2094 31.0077C28.5843 30.2947 28.2717 29.3913 28.2717 28.2974C28.2717 27.1839 28.594 26.2609 29.2387 25.5284C29.8833 24.7861 30.733 24.415 31.7878 24.415C32.9208 24.415 33.795 24.7764 34.4103 25.4991C35.0256 26.2121 35.3333 27.1253 35.3333 28.2387C35.3333 29.3522 35.0158 30.2703 34.381 30.993C33.7559 31.7158 32.8915 32.0772 31.7878 32.0772ZM31.7732 25.631C31.1383 25.631 30.6451 25.8849 30.2935 26.3928C29.9419 26.8909 29.7661 27.5111 29.7661 28.2534C29.7661 28.9859 29.9468 29.6061 30.3082 30.114C30.6695 30.6121 31.1628 30.8612 31.7878 30.8612C32.452 30.8612 32.955 30.617 33.2968 30.1287C33.6485 29.6403 33.8243 29.0201 33.8243 28.2681C33.8243 27.4965 33.6582 26.8665 33.3261 26.3781C32.9941 25.88 32.4764 25.631 31.7732 25.631ZM38.0942 24.5175V25.8214C38.4556 24.9033 39.1051 24.4443 40.0427 24.4443C40.1794 24.4443 40.3308 24.4589 40.4968 24.4882V25.8947C40.2917 25.8068 40.0622 25.7628 39.8083 25.7628C39.3102 25.7628 38.9 25.9826 38.5776 26.4221C38.2553 26.8616 38.0942 27.3841 38.0942 27.9897V31.9453H36.6584V24.5175H38.0942ZM44.3333 30.7879C44.8998 30.7879 45.3784 30.5731 45.7691 30.1433C46.1597 29.7136 46.3551 29.0592 46.3551 28.1801C46.3551 27.3304 46.15 26.7005 45.7398 26.2902C45.3393 25.88 44.8852 25.6749 44.3773 25.6749C43.801 25.6749 43.3273 25.9044 42.9562 26.3635C42.585 26.8128 42.3995 27.4574 42.3995 28.2974C42.3995 29.0396 42.5801 29.6403 42.9415 30.0994C43.3127 30.5584 43.7766 30.7879 44.3333 30.7879ZM46.3551 21.5874H47.8055V31.9453H46.3551V30.8172C45.8374 31.6377 45.0805 32.0479 44.0843 32.0479C43.1076 32.0479 42.336 31.6816 41.7695 30.9491C41.203 30.2068 40.9198 29.3131 40.9198 28.2681C40.9198 27.1058 41.2177 26.173 41.8134 25.4698C42.4092 24.7666 43.1759 24.415 44.1136 24.415C45.0805 24.415 45.8277 24.8252 46.3551 25.6456V21.5874ZM53.447 28.6343H52.3336C51.7867 28.6343 51.3716 28.7417 51.0883 28.9566C50.8148 29.1715 50.6781 29.445 50.6781 29.777C50.6781 30.1189 50.7855 30.3875 51.0004 30.5828C51.2153 30.7782 51.5278 30.8758 51.938 30.8758C52.4069 30.8758 52.7731 30.7489 53.0368 30.4949C53.3103 30.2312 53.447 29.8894 53.447 29.4694V28.6343ZM49.7112 26.2902V24.8984C50.2874 24.5664 51.0493 24.4003 51.9966 24.4003C53.9403 24.4003 54.9121 25.3428 54.9121 27.2279V31.9453H53.491V31.0663C53.1101 31.6914 52.441 32.0039 51.4839 32.0039C50.7807 32.0039 50.2142 31.8037 49.7844 31.4032C49.3645 30.993 49.1545 30.4754 49.1545 29.8503C49.1545 29.1373 49.4231 28.5855 49.9602 28.1948C50.4974 27.7944 51.2495 27.5941 52.2164 27.5941H53.447V27.1693C53.447 26.6614 53.325 26.2805 53.0808 26.0265C52.8366 25.7628 52.4313 25.631 51.8648 25.631C51.0737 25.631 50.3558 25.8507 49.7112 26.2902ZM57.989 24.5175V25.7921C58.4285 24.874 59.2001 24.415 60.3038 24.415C61.0363 24.415 61.6174 24.6396 62.0472 25.0889C62.4769 25.5382 62.6918 26.1486 62.6918 26.9202V31.9453H61.2561V27.2572C61.2561 26.7395 61.1242 26.344 60.8605 26.0705C60.6066 25.797 60.2647 25.6603 59.835 25.6603C59.3271 25.6603 58.8925 25.8605 58.5311 26.2609C58.1697 26.6516 57.989 27.2035 57.989 27.9164V31.9453H56.5533V24.5175H57.989ZM28.8993 40.2174H30.2325L31.2727 43.7335L32.6059 48.3777C32.9672 46.6001 33.3042 45.0521 33.6167 43.7335L34.4811 40.0709H36.0048L33.5874 49.9453H31.7854L30.8478 46.8248L29.5732 42.415C29.3486 43.3428 28.9384 44.8128 28.3426 46.8248L27.4343 49.9453H25.6176L23.0245 40.0709H24.5921L25.5151 43.7189L26.5992 48.3484C27.0387 46.7076 27.4684 45.1644 27.8884 43.7189L28.8993 40.2174ZM41.7809 45.6967V45.433C41.7614 44.8763 41.61 44.4367 41.3268 44.1144C41.0435 43.7824 40.6382 43.6163 40.1108 43.6163C39.6224 43.6163 39.2025 43.797 38.8508 44.1584C38.4992 44.51 38.2795 45.0228 38.1916 45.6967H41.7809ZM42.7039 48.2605V49.5498C42.157 49.8623 41.4342 50.0186 40.5357 50.0186C39.3831 50.0186 38.4651 49.6718 37.7814 48.9784C37.0977 48.2849 36.7558 47.3766 36.7558 46.2534C36.7558 45.0618 37.0684 44.1291 37.6935 43.4552C38.3185 42.7715 39.1146 42.4296 40.0815 42.4296C41.0289 42.4296 41.7809 42.7275 42.3377 43.3233C42.8944 43.9093 43.1727 44.7591 43.1727 45.8725C43.1727 46.1753 43.1434 46.4927 43.0848 46.8248H38.2062C38.3039 47.4694 38.5774 47.9626 39.0267 48.3045C39.4759 48.6463 40.0424 48.8172 40.7261 48.8172C41.5172 48.8172 42.1765 48.6317 42.7039 48.2605ZM46.006 42.5175V43.7921C46.4455 42.874 47.2171 42.415 48.3208 42.415C49.0533 42.415 49.6344 42.6396 50.0642 43.0889C50.4939 43.5382 50.7088 44.1486 50.7088 44.9202V49.9453H49.273V45.2572C49.273 44.7395 49.1412 44.344 48.8775 44.0705C48.6235 43.797 48.2817 43.6603 47.8519 43.6603C47.3441 43.6603 46.9094 43.8605 46.5481 44.2609C46.1867 44.6516 46.006 45.2035 46.006 45.9164V49.9453H44.5702V42.5175H46.006ZM54.207 43.631V47.7184C54.207 48.4314 54.5489 48.7879 55.2326 48.7879C55.633 48.7879 55.97 48.6805 56.2434 48.4656V49.7549C55.9211 49.9307 55.5256 50.0186 55.0568 50.0186C53.5233 50.0186 52.7566 49.2421 52.7566 47.6891V43.631H51.5993V42.5175H52.7566V40.7009H54.207V42.5175H56.1555V43.631H54.207ZM59.1299 49.9453L56.8005 42.5175H58.3242L59.0127 44.9788C59.2374 45.7602 59.4278 46.4487 59.5841 47.0445C59.7404 47.6403 59.838 48.0408 59.8771 48.2459L59.9357 48.5535C60.0627 47.9382 60.385 46.7417 60.9026 44.9642L61.6205 42.5175H63.0123L63.7448 44.9642C63.9792 45.7748 64.1794 46.4829 64.3455 47.0885C64.5115 47.6843 64.619 48.0798 64.6678 48.2752L64.7264 48.5682C64.8436 47.9919 65.1757 46.7906 65.7226 44.9642L66.4552 42.5175H67.9055L65.5468 49.9453H63.906L63.2174 47.5133C63.0123 46.771 62.8316 46.1167 62.6753 45.5502C62.5288 44.9739 62.4312 44.5832 62.3823 44.3781L62.3237 44.0851C62.187 44.72 61.8891 45.8627 61.43 47.5133L60.7561 49.9453H59.1299ZM72.0062 50.0772C70.9123 50.0772 70.0528 49.7207 69.4277 49.0077C68.8026 48.2947 68.4901 47.3913 68.4901 46.2974C68.4901 45.1839 68.8124 44.2609 69.457 43.5284C70.1016 42.7861 70.9513 42.415 72.0062 42.415C73.1391 42.415 74.0133 42.7764 74.6286 43.4991C75.2439 44.2121 75.5516 45.1253 75.5516 46.2387C75.5516 47.3522 75.2342 48.2703 74.5993 48.993C73.9742 49.7158 73.1098 50.0772 72.0062 50.0772ZM71.9915 43.631C71.3567 43.631 70.8634 43.8849 70.5118 44.3928C70.1602 44.8909 69.9844 45.5111 69.9844 46.2534C69.9844 46.9859 70.1651 47.6061 70.5265 48.114C70.8879 48.6121 71.3811 48.8612 72.0062 48.8612C72.6703 48.8612 73.1733 48.617 73.5152 48.1287C73.8668 47.6403 74.0426 47.0201 74.0426 46.2681C74.0426 45.4965 73.8766 44.8665 73.5445 44.3781C73.2124 43.88 72.6948 43.631 71.9915 43.631ZM78.3125 42.5175V43.8214C78.6739 42.9033 79.3234 42.4443 80.261 42.4443C80.3978 42.4443 80.5491 42.4589 80.7152 42.4882V43.8947C80.5101 43.8068 80.2806 43.7628 80.0266 43.7628C79.5285 43.7628 79.1183 43.9826 78.796 44.4221C78.4737 44.8616 78.3125 45.3841 78.3125 45.9897V49.9453H76.8768V42.5175H78.3125ZM83.4089 43.631V47.7184C83.4089 48.4314 83.7508 48.7879 84.4344 48.7879C84.8349 48.7879 85.1719 48.6805 85.4453 48.4656V49.7549C85.123 49.9307 84.7275 50.0186 84.2586 50.0186C82.7252 50.0186 81.9585 49.2421 81.9585 47.6891V43.631H80.8011V42.5175H81.9585V40.7009H83.4089V42.5175H85.3574V43.631H83.4089ZM88.1707 39.5874V43.7921C88.5906 42.874 89.3573 42.415 90.4708 42.415C91.1935 42.415 91.7747 42.6396 92.2142 43.0889C92.6537 43.5382 92.8734 44.1633 92.8734 44.9642V49.9453H91.4377V45.2572C91.4377 44.7493 91.3058 44.3586 91.0421 44.0851C90.7882 43.8019 90.4512 43.6603 90.0313 43.6603C89.5429 43.6603 89.1083 43.8458 88.7274 44.217C88.3562 44.5881 88.1707 45.1546 88.1707 45.9164V49.9453H86.7349V39.5874H88.1707Z" fill="#07133B"/>
<path d="M28.9765 73.7585V75.5458C28.2439 75.1063 27.4626 74.8866 26.6324 74.8866C26.1733 74.8866 25.812 74.9891 25.5483 75.1942C25.2943 75.3993 25.1673 75.663 25.1673 75.9853C25.1673 76.1611 25.2064 76.3223 25.2846 76.4688C25.3725 76.6055 25.5141 76.7423 25.7094 76.879C25.9048 77.006 26.0757 77.1085 26.2222 77.1867C26.3785 77.2648 26.608 77.3722 26.9108 77.509C27.2819 77.675 27.5896 77.8264 27.8337 77.9631C28.0779 78.0999 28.3367 78.2855 28.6102 78.5199C28.8934 78.7445 29.1034 79.0229 29.2402 79.3549C29.3769 79.6772 29.4453 80.0435 29.4453 80.4537C29.4453 81.2155 29.2011 81.8504 28.7128 82.3583C28.2342 82.8564 27.5847 83.1641 26.7642 83.2813V84.9075H25.2846V83.2959C24.4739 83.2178 23.7951 83.0224 23.2481 82.7099V80.82C24.0881 81.4255 25.0062 81.7283 26.0024 81.7283C26.4517 81.7283 26.8131 81.6209 27.0866 81.406C27.36 81.1814 27.4968 80.8835 27.4968 80.5123C27.4968 80.4049 27.4772 80.3072 27.4382 80.2193C27.4089 80.1216 27.3698 80.0386 27.321 79.9703C27.2819 79.8921 27.2135 79.814 27.1159 79.7359C27.0182 79.6577 26.9352 79.5942 26.8668 79.5454C26.7984 79.4966 26.6861 79.4331 26.5298 79.3549C26.3833 79.2768 26.271 79.2231 26.1929 79.1938C26.1147 79.1547 25.978 79.0961 25.7827 79.018C25.5873 78.9301 25.4506 78.8666 25.3725 78.8275C24.6985 78.515 24.1614 78.1536 23.7609 77.7434C23.3702 77.3332 23.1749 76.7716 23.1749 76.0586C23.1749 75.2968 23.4288 74.6717 23.9367 74.1833C24.4446 73.695 25.1332 73.402 26.0024 73.3043V71.6928H27.4968V73.3336C28.0633 73.4117 28.5565 73.5534 28.9765 73.7585ZM29.94 76.9669V75.1356L32.4745 73.6413H34.0274V83.2227H32.284V75.5458L29.94 76.9669ZM34.6046 85.0686L36.0404 81.45H38.0768L36.1283 85.0686H34.6046ZM41.2498 81.7137H45.0735V83.2227H38.8178V81.8162C39.9605 81.0056 40.947 80.1412 41.7772 79.2231C42.6074 78.2952 43.0225 77.4601 43.0225 76.7179C43.0225 76.2295 42.8808 75.8486 42.5976 75.5751C42.3144 75.3016 41.9041 75.1649 41.367 75.1649C40.5563 75.1649 39.7798 75.4677 39.0375 76.0732V74.3591C39.3599 74.115 39.7603 73.9147 40.2389 73.7585C40.7175 73.6022 41.196 73.5241 41.6746 73.5241C42.6123 73.5241 43.3741 73.7829 43.9601 74.3005C44.5559 74.8084 44.8538 75.5263 44.8538 76.4542C44.8538 78.1927 43.6524 79.9458 41.2498 81.7137ZM49.0445 78.388C49.7184 78.388 50.2605 78.1292 50.6707 77.6115C50.6316 76.7911 50.4656 76.1709 50.1726 75.7509C49.8893 75.3212 49.5035 75.1063 49.0152 75.1063C48.5659 75.1063 48.2045 75.2528 47.931 75.5458C47.6673 75.8388 47.5355 76.2393 47.5355 76.7472C47.5355 77.2453 47.6722 77.6457 47.9457 77.9485C48.2192 78.2415 48.5854 78.388 49.0445 78.388ZM46.3048 83.0615V81.3767C46.8127 81.6111 47.3304 81.7283 47.8578 81.7283C49.4596 81.7283 50.3777 80.8591 50.6121 79.1205C50.1726 79.6089 49.5035 79.8531 48.605 79.8531C47.7748 79.8531 47.0862 79.5747 46.5393 79.018C45.9923 78.4515 45.7188 77.7043 45.7188 76.7765C45.7188 75.8388 46.007 75.0624 46.5832 74.447C47.1595 73.822 47.9408 73.5094 48.9273 73.5094C50.0505 73.5094 50.9149 73.9196 51.5204 74.74C52.126 75.5507 52.4287 76.63 52.4287 77.9778C52.4287 79.7261 52.0381 81.0593 51.2567 81.9774C50.4851 82.8857 49.4059 83.3399 48.019 83.3399C47.3841 83.3399 46.8127 83.2471 46.3048 83.0615ZM53.5343 75.7216V74.0661C54.1984 73.7047 54.8968 73.5241 55.6293 73.5241C56.6353 73.5241 57.4215 73.7682 57.988 74.2566C58.5643 74.7449 58.8524 75.37 58.8524 76.1318C58.8524 77.2355 58.3494 77.9876 57.3434 78.388C57.8903 78.5247 58.3152 78.7836 58.618 79.1645C58.9208 79.5356 59.0721 80.0093 59.0721 80.5856C59.0721 81.3865 58.7742 82.0409 58.1785 82.5487C57.5924 83.0469 56.7671 83.2959 55.7025 83.2959C54.7161 83.2959 53.8761 83.1348 53.1827 82.8124V81.0983C53.9445 81.5086 54.7454 81.7137 55.5853 81.7137C56.1127 81.7137 56.523 81.5916 56.816 81.3474C57.1187 81.0935 57.2701 80.7711 57.2701 80.3805C57.2701 79.5307 56.5816 79.1059 55.2044 79.1059H54.6477V77.6262H55.2044C55.7221 77.6262 56.1567 77.5139 56.5083 77.2892C56.8599 77.0646 57.0357 76.7472 57.0357 76.3369C57.0357 75.5165 56.5327 75.1063 55.5267 75.1063C54.8626 75.1063 54.1984 75.3114 53.5343 75.7216ZM59.2712 85.0686L60.7069 81.45H62.7433L60.7948 85.0686H59.2712ZM65.9163 81.7137H69.7401V83.2227H63.4843V81.8162C64.6271 81.0056 65.6135 80.1412 66.4437 79.2231C67.2739 78.2952 67.689 77.4601 67.689 76.7179C67.689 76.2295 67.5474 75.8486 67.2641 75.5751C66.9809 75.3016 66.5707 75.1649 66.0335 75.1649C65.2228 75.1649 64.4464 75.4677 63.7041 76.0732V74.3591C64.0264 74.115 64.4268 73.9147 64.9054 73.7585C65.384 73.6022 65.8626 73.5241 66.3412 73.5241C67.2788 73.5241 68.0406 73.7829 68.6266 74.3005C69.2224 74.8084 69.5203 75.5263 69.5203 76.4542C69.5203 78.1927 68.319 79.9458 65.9163 81.7137ZM70.5612 78.388C70.5612 76.8741 70.8591 75.6777 71.4549 74.7986C72.0506 73.9099 72.8955 73.4655 73.9894 73.4655C75.0931 73.4655 75.9428 73.9099 76.5386 74.7986C77.1441 75.6777 77.4469 76.8741 77.4469 78.388C77.4469 79.8921 77.149 81.0935 76.5532 81.992C75.9672 82.8906 75.1126 83.3399 73.9894 83.3399C72.8955 83.3399 72.0506 82.8906 71.4549 81.992C70.8591 81.0935 70.5612 79.8921 70.5612 78.388ZM72.8027 75.9267C72.5097 76.4932 72.3632 77.3136 72.3632 78.388C72.3632 79.4624 72.5048 80.2926 72.788 80.8786C73.0811 81.4548 73.4815 81.743 73.9894 81.743C74.5168 81.743 74.9221 81.4548 75.2054 80.8786C75.4984 80.3023 75.6449 79.4721 75.6449 78.388C75.6449 77.3039 75.4935 76.4786 75.1907 75.9121C74.8977 75.3456 74.4973 75.0624 73.9894 75.0624C73.4913 75.0624 73.0957 75.3505 72.8027 75.9267ZM78.2658 78.388C78.2658 76.8741 78.5637 75.6777 79.1595 74.7986C79.7553 73.9099 80.6001 73.4655 81.694 73.4655C82.7977 73.4655 83.6474 73.9099 84.2432 74.7986C84.8488 75.6777 85.1515 76.8741 85.1515 78.388C85.1515 79.8921 84.8536 81.0935 84.2579 81.992C83.6718 82.8906 82.8172 83.3399 81.694 83.3399C80.6001 83.3399 79.7553 82.8906 79.1595 81.992C78.5637 81.0935 78.2658 79.8921 78.2658 78.388ZM80.5073 75.9267C80.2143 76.4932 80.0678 77.3136 80.0678 78.388C80.0678 79.4624 80.2095 80.2926 80.4927 80.8786C80.7857 81.4548 81.1861 81.743 81.694 81.743C82.2214 81.743 82.6268 81.4548 82.91 80.8786C83.203 80.3023 83.3495 79.4721 83.3495 78.388C83.3495 77.3039 83.1981 76.4786 82.8954 75.9121C82.6024 75.3456 82.2019 75.0624 81.694 75.0624C81.1959 75.0624 80.8004 75.3505 80.5073 75.9267Z" fill="#1AD079"/>
<path d="M24.8265 113.098H26.5186C27.604 113.098 28.1466 112.649 28.1466 111.752C28.1466 111.316 27.9971 110.978 27.698 110.739C27.4074 110.491 26.9716 110.367 26.3904 110.367H24.8265V113.098ZM24.8265 106.637V109.291H26.0187C26.6596 109.291 27.1339 109.162 27.4416 108.906C27.7578 108.641 27.9159 108.299 27.9159 107.88C27.9159 107.513 27.7749 107.214 27.4929 106.983C27.2194 106.752 26.8006 106.637 26.2366 106.637H24.8265ZM23.5061 105.547H26.3391C27.245 105.547 27.9586 105.761 28.4799 106.188C29.0012 106.607 29.2619 107.163 29.2619 107.855C29.2619 108.333 29.1252 108.752 28.8517 109.111C28.5868 109.47 28.2449 109.701 27.8262 109.803C28.2962 109.889 28.6893 110.107 29.0055 110.457C29.3303 110.808 29.4926 111.278 29.4926 111.867C29.4926 112.551 29.2576 113.111 28.7876 113.547C28.3261 113.974 27.6723 114.188 26.8263 114.188H23.5061V105.547ZM33.3647 114.303C32.4076 114.303 31.6555 113.991 31.1086 113.367C30.5616 112.743 30.2881 111.953 30.2881 110.996C30.2881 110.021 30.5702 109.214 31.1342 108.573C31.6982 107.923 32.4417 107.598 33.3647 107.598C34.3561 107.598 35.1209 107.915 35.6594 108.547C36.1978 109.171 36.467 109.97 36.467 110.944C36.467 111.919 36.1892 112.722 35.6337 113.354C35.0868 113.987 34.3304 114.303 33.3647 114.303ZM33.3519 108.662C32.7964 108.662 32.3648 108.885 32.0572 109.329C31.7495 109.765 31.5957 110.308 31.5957 110.957C31.5957 111.598 31.7538 112.141 32.07 112.585C32.3862 113.021 32.8178 113.239 33.3647 113.239C33.9459 113.239 34.386 113.025 34.6851 112.598C34.9928 112.171 35.1466 111.628 35.1466 110.97C35.1466 110.295 35.0013 109.744 34.7107 109.316C34.4202 108.88 33.9672 108.662 33.3519 108.662ZM41.3312 107.906V109.047C40.9125 108.799 40.3741 108.675 39.716 108.675C39.4169 108.675 39.1776 108.744 38.9981 108.88C38.8272 109.017 38.7418 109.197 38.7418 109.419C38.7418 109.479 38.746 109.538 38.7546 109.598C38.7717 109.65 38.7973 109.705 38.8315 109.765C38.8657 109.816 38.8956 109.863 38.9212 109.906C38.9554 109.94 39.0067 109.979 39.0751 110.021C39.1434 110.064 39.1947 110.102 39.2289 110.137C39.2716 110.162 39.3357 110.196 39.4212 110.239C39.5152 110.282 39.5835 110.316 39.6263 110.342C39.669 110.359 39.7416 110.393 39.8442 110.444C39.9553 110.487 40.0322 110.517 40.0749 110.534C40.5792 110.756 40.9723 111.008 41.2543 111.29C41.5449 111.564 41.6902 111.931 41.6902 112.393C41.6902 112.974 41.4851 113.431 41.0748 113.764C40.6646 114.089 40.1091 114.252 39.4084 114.252C38.6392 114.252 37.9982 114.123 37.4855 113.867V112.675C38.0837 113.042 38.7033 113.226 39.3443 113.226C39.6776 113.226 39.9339 113.158 40.1134 113.021C40.3014 112.884 40.3954 112.705 40.3954 112.483C40.3954 112.295 40.3228 112.128 40.1775 111.983C40.0322 111.829 39.8827 111.718 39.7288 111.649C39.5835 111.572 39.3314 111.457 38.9725 111.303C37.9555 110.884 37.447 110.269 37.447 109.457C37.447 108.885 37.6607 108.436 38.088 108.111C38.5153 107.786 39.0494 107.624 39.6904 107.624C40.3912 107.624 40.9381 107.718 41.3312 107.906ZM44.3687 108.662V112.239C44.3687 112.863 44.6678 113.175 45.266 113.175C45.6164 113.175 45.9112 113.081 46.1505 112.893V114.021C45.8685 114.175 45.5224 114.252 45.1122 114.252C43.7704 114.252 43.0996 113.572 43.0996 112.213V108.662H42.0869V107.688H43.0996V106.099H44.3687V107.688H46.0736V108.662H44.3687ZM49.9966 114.303C49.0394 114.303 48.2873 113.991 47.7404 113.367C47.1934 112.743 46.92 111.953 46.92 110.996C46.92 110.021 47.202 109.214 47.766 108.573C48.3301 107.923 49.0736 107.598 49.9966 107.598C50.9879 107.598 51.7528 107.915 52.2912 108.547C52.8296 109.171 53.0988 109.97 53.0988 110.944C53.0988 111.919 52.821 112.722 52.2655 113.354C51.7186 113.987 50.9623 114.303 49.9966 114.303ZM49.9837 108.662C49.4282 108.662 48.9967 108.885 48.689 109.329C48.3813 109.765 48.2275 110.308 48.2275 110.957C48.2275 111.598 48.3856 112.141 48.7018 112.585C49.018 113.021 49.4496 113.239 49.9966 113.239C50.5777 113.239 51.0178 113.025 51.3169 112.598C51.6246 112.171 51.7784 111.628 51.7784 110.97C51.7784 110.295 51.6331 109.744 51.3426 109.316C51.052 108.88 50.5991 108.662 49.9837 108.662ZM55.5146 107.688V108.803C55.8992 108 56.5743 107.598 57.54 107.598C58.181 107.598 58.6895 107.795 59.0655 108.188C59.4415 108.581 59.6295 109.115 59.6295 109.791V114.188H58.3733V110.085C58.3733 109.632 58.2579 109.286 58.0271 109.047C57.8049 108.808 57.5058 108.688 57.1298 108.688C56.6854 108.688 56.3051 108.863 55.9889 109.214C55.6727 109.556 55.5146 110.038 55.5146 110.662V114.188H54.2583V107.688H55.5146ZM60.0754 115.777L61.306 112.777H62.8572L61.1779 115.777H60.0754ZM66.7825 114.188L67.4491 105.547H69.013L70.1668 108.701C70.3719 109.239 70.577 109.812 70.7821 110.419C70.9872 111.017 71.141 111.483 71.2436 111.816L71.4102 112.316C71.8033 111.154 72.2349 109.949 72.705 108.701L73.91 105.547H75.4739L76.2687 114.188H74.9611L74.6535 110.803L74.3843 107.342C73.9997 108.427 73.5809 109.581 73.128 110.803L71.923 114.021H70.8846L69.7181 110.803L68.5516 107.393C68.5516 107.769 68.4832 108.906 68.3465 110.803L68.0901 114.188H66.7825ZM79.6807 110.97H82.4496L82.3086 110.534C81.9838 109.526 81.7189 108.692 81.5138 108.034C81.3087 107.368 81.1848 106.953 81.1421 106.791L81.078 106.547C80.984 106.949 80.5652 108.278 79.8217 110.534L79.6807 110.97ZM83.488 114.188L82.8085 112.072H79.3217L78.6295 114.188H77.2322L80.2191 105.547H81.9497L84.8981 114.188H83.488ZM23.6087 128.188V119.547H24.9162V128.188H23.6087ZM27.8348 121.688V122.803C28.2193 122 28.8945 121.598 29.8602 121.598C30.5012 121.598 31.0096 121.795 31.3857 122.188C31.7617 122.581 31.9497 123.115 31.9497 123.791V128.188H30.6934V124.085C30.6934 123.632 30.5781 123.286 30.3473 123.047C30.1251 122.808 29.826 122.688 29.45 122.688C29.0056 122.688 28.6253 122.863 28.3091 123.214C27.9929 123.556 27.8348 124.038 27.8348 124.662V128.188H26.5785V121.688H27.8348ZM34.6389 119.124V122.803C35.0064 122 35.6773 121.598 36.6515 121.598C37.2839 121.598 37.7924 121.795 38.177 122.188C38.5616 122.581 38.7539 123.128 38.7539 123.829V128.188H37.4976V124.085C37.4976 123.641 37.3822 123.299 37.1515 123.06C36.9293 122.812 36.6344 122.688 36.267 122.688C35.8397 122.688 35.4594 122.85 35.1261 123.175C34.8013 123.5 34.6389 123.996 34.6389 124.662V128.188H33.3827V119.124H34.6389ZM44.2248 124.47V124.239C44.2078 123.752 44.0753 123.368 43.8274 123.085C43.5796 122.795 43.225 122.65 42.7635 122.65C42.3362 122.65 41.9687 122.808 41.661 123.124C41.3534 123.432 41.1611 123.88 41.0842 124.47H44.2248ZM45.0324 126.713V127.841C44.5539 128.115 43.9215 128.252 43.1352 128.252C42.1268 128.252 41.3234 127.948 40.7252 127.341C40.127 126.735 39.8279 125.94 39.8279 124.957C39.8279 123.914 40.1014 123.098 40.6483 122.509C41.1953 121.91 41.8918 121.611 42.7378 121.611C43.5668 121.611 44.2248 121.872 44.712 122.393C45.1991 122.906 45.4427 123.65 45.4427 124.624C45.4427 124.889 45.417 125.166 45.3657 125.457H41.097C41.1824 126.021 41.4217 126.453 41.8148 126.752C42.208 127.051 42.7036 127.2 43.3019 127.2C43.9941 127.2 44.571 127.038 45.0324 126.713ZM47.9218 121.688V122.829C48.238 122.026 48.8063 121.624 49.6267 121.624C49.7464 121.624 49.8788 121.637 50.0241 121.663V122.893C49.8446 122.816 49.6438 122.778 49.4216 122.778C48.9858 122.778 48.6268 122.97 48.3448 123.355C48.0628 123.739 47.9218 124.196 47.9218 124.726V128.188H46.6655V121.688H47.9218ZM50.8044 128.188V121.688H52.0735V128.188H50.8044ZM50.8685 120.265C50.7232 120.111 50.6505 119.923 50.6505 119.701C50.6505 119.479 50.7232 119.291 50.8685 119.137C51.0223 118.983 51.2103 118.906 51.4325 118.906C51.6547 118.906 51.8427 118.983 51.9965 119.137C52.1504 119.291 52.2273 119.479 52.2273 119.701C52.2273 119.915 52.1504 120.099 51.9965 120.252C51.8427 120.406 51.6547 120.483 51.4325 120.483C51.2103 120.483 51.0223 120.411 50.8685 120.265ZM55.2669 122.662V126.239C55.2669 126.863 55.566 127.175 56.1643 127.175C56.5147 127.175 56.8095 127.081 57.0488 126.893V128.021C56.7668 128.175 56.4206 128.252 56.0104 128.252C54.6687 128.252 53.9978 127.572 53.9978 126.213V122.662H52.9851V121.688H53.9978V120.099H55.2669V121.688H56.9719V122.662H55.2669ZM61.5999 125.29H60.6256C60.147 125.29 59.7838 125.384 59.536 125.572C59.2967 125.76 59.1771 126 59.1771 126.29C59.1771 126.589 59.2711 126.824 59.4591 126.995C59.6471 127.166 59.9206 127.252 60.2795 127.252C60.6897 127.252 61.0102 127.141 61.2409 126.918C61.4802 126.688 61.5999 126.389 61.5999 126.021V125.29ZM58.331 123.239V122.021C58.8352 121.731 59.5018 121.586 60.3308 121.586C62.0315 121.586 62.8818 122.41 62.8818 124.06V128.188H61.6383V127.418C61.305 127.965 60.7196 128.239 59.8821 128.239C59.2668 128.239 58.7711 128.064 58.3951 127.713C58.0276 127.354 57.8439 126.901 57.8439 126.354C57.8439 125.73 58.0789 125.248 58.5489 124.906C59.019 124.555 59.677 124.38 60.5231 124.38H61.5999V124.008C61.5999 123.564 61.4931 123.231 61.2794 123.009C61.0658 122.778 60.7111 122.662 60.2154 122.662C59.5232 122.662 58.895 122.855 58.331 123.239ZM65.5741 121.688V122.803C65.9587 122 66.6338 121.598 67.5995 121.598C68.2405 121.598 68.749 121.795 69.125 122.188C69.501 122.581 69.6891 123.115 69.6891 123.791V128.188H68.4328V124.085C68.4328 123.632 68.3174 123.286 68.0867 123.047C67.8645 122.808 67.5654 122.688 67.1893 122.688C66.7449 122.688 66.3646 122.863 66.0484 123.214C65.7322 123.556 65.5741 124.038 65.5741 124.662V128.188H64.3178V121.688H65.5741ZM72.0578 124.97C72.0749 125.628 72.2757 126.171 72.6603 126.598C73.0449 127.017 73.5833 127.226 74.2755 127.226C74.7883 127.226 75.2669 127.085 75.7112 126.803V127.931C75.2925 128.188 74.7584 128.316 74.1089 128.316C73.0919 128.316 72.28 127.995 71.6732 127.354C71.0664 126.713 70.7631 125.914 70.7631 124.957C70.7631 124.026 71.0664 123.231 71.6732 122.573C72.2885 121.906 73.1175 121.573 74.1601 121.573C74.7242 121.573 75.2412 121.692 75.7112 121.932V123.085C75.2925 122.821 74.8182 122.688 74.2883 122.688C73.6132 122.688 73.0705 122.902 72.6603 123.329C72.2586 123.756 72.0578 124.303 72.0578 124.97ZM80.9377 124.47V124.239C80.9206 123.752 80.7881 123.368 80.5403 123.085C80.2924 122.795 79.9378 122.65 79.4763 122.65C79.049 122.65 78.6815 122.808 78.3738 123.124C78.0662 123.432 77.8739 123.88 77.797 124.47H80.9377ZM81.7453 126.713V127.841C81.2667 128.115 80.6343 128.252 79.848 128.252C78.8396 128.252 78.0363 127.948 77.438 127.341C76.8398 126.735 76.5407 125.94 76.5407 124.957C76.5407 123.914 76.8142 123.098 77.3611 122.509C77.9081 121.91 78.6046 121.611 79.4506 121.611C80.2796 121.611 80.9377 121.872 81.4248 122.393C81.9119 122.906 82.1555 123.65 82.1555 124.624C82.1555 124.889 82.1298 125.166 82.0786 125.457H77.8098C77.8952 126.021 78.1345 126.453 78.5277 126.752C78.9208 127.051 79.4164 127.2 80.0147 127.2C80.7069 127.2 81.2838 127.038 81.7453 126.713Z" fill="#83899D"/>
<rect x="130.621" y="15.2852" width="38.4574" height="21.9757" rx="3.66261" fill="#D4EAF2"/>
<path d="M138.747 28.9492V21.5434H140.088L141.912 24.642C142.249 25.2207 142.553 25.7554 142.824 26.2462C143.102 26.737 143.293 27.0813 143.395 27.2791L143.549 27.5867C143.505 26.9201 143.483 25.9422 143.483 24.653V21.5434H144.615V28.9492H143.274L141.439 25.8616C141.11 25.3049 140.806 24.7812 140.527 24.2904C140.256 23.7923 140.066 23.4333 139.956 23.2136L139.791 22.8949C139.85 23.6274 139.879 24.6127 139.879 25.8506V28.9492H138.747ZM149.413 25.7627V25.565C149.399 25.1474 149.285 24.8178 149.073 24.5761C148.86 24.327 148.556 24.2025 148.161 24.2025C147.794 24.2025 147.479 24.338 147.216 24.609C146.952 24.8727 146.787 25.2573 146.721 25.7627H149.413ZM150.105 27.6856V28.6525C149.695 28.887 149.153 29.0042 148.479 29.0042C147.615 29.0042 146.926 28.7441 146.413 28.224C145.901 27.7039 145.644 27.0227 145.644 26.1803C145.644 25.2866 145.879 24.587 146.348 24.0816C146.816 23.5688 147.413 23.3125 148.139 23.3125C148.849 23.3125 149.413 23.5359 149.831 23.9827C150.248 24.4222 150.457 25.0595 150.457 25.8946C150.457 26.1217 150.435 26.3598 150.391 26.6088H146.732C146.805 27.0923 147.011 27.4622 147.347 27.7186C147.684 27.975 148.109 28.1032 148.622 28.1032C149.215 28.1032 149.71 27.964 150.105 27.6856ZM152.703 28.9492L150.956 23.3784H152.098L152.615 25.2243C152.783 25.8104 152.926 26.3268 153.043 26.7736C153.161 27.2205 153.234 27.5208 153.263 27.6746L153.307 27.9054C153.402 27.4439 153.644 26.5465 154.032 25.2134L154.571 23.3784H155.615L156.164 25.2134C156.34 25.8213 156.49 26.3524 156.614 26.8066C156.739 27.2534 156.82 27.5501 156.856 27.6966L156.9 27.9164C156.988 27.4842 157.237 26.5832 157.647 25.2134L158.197 23.3784H159.285L157.516 28.9492H156.285L155.768 27.1252C155.615 26.5685 155.479 26.0777 155.362 25.6529C155.252 25.2207 155.179 24.9277 155.142 24.7738L155.098 24.5541C154.996 25.0302 154.772 25.8873 154.428 27.1252L153.922 28.9492H152.703Z" fill="#6A909D"/>
<path d="M55.4462 152.777V153.887C55.1238 153.711 54.8308 153.59 54.5671 153.524C54.3107 153.451 53.9811 153.414 53.5782 153.414C52.8384 153.414 52.2194 153.667 51.7213 154.172C51.2305 154.67 50.9851 155.333 50.9851 156.161C50.9851 157.004 51.2305 157.674 51.7213 158.172C52.2121 158.67 52.8604 158.919 53.6661 158.919C54.3767 158.919 54.9737 158.736 55.4571 158.37V159.512C55.003 159.813 54.373 159.963 53.5672 159.963C52.4611 159.963 51.5565 159.619 50.8532 158.93C50.15 158.241 49.7984 157.318 49.7984 156.161C49.7984 155.04 50.15 154.128 50.8532 153.425C51.5638 152.722 52.4611 152.37 53.5453 152.37C54.3364 152.37 54.97 152.506 55.4462 152.777ZM58.8136 159.974C57.9932 159.974 57.3485 159.707 56.8797 159.172C56.4109 158.637 56.1765 157.959 56.1765 157.139C56.1765 156.304 56.4182 155.612 56.9017 155.062C57.3852 154.506 58.0225 154.227 58.8136 154.227C59.6633 154.227 60.3189 154.498 60.7804 155.04C61.2419 155.575 61.4726 156.26 61.4726 157.095C61.4726 157.93 61.2346 158.619 60.7584 159.161C60.2896 159.703 59.6413 159.974 58.8136 159.974ZM58.8026 155.139C58.3265 155.139 57.9565 155.33 57.6928 155.711C57.4291 156.084 57.2973 156.549 57.2973 157.106C57.2973 157.655 57.4328 158.121 57.7038 158.502C57.9748 158.875 58.3448 159.062 58.8136 159.062C59.3117 159.062 59.6889 158.879 59.9453 158.513C60.209 158.146 60.3409 157.681 60.3409 157.117C60.3409 156.538 60.2164 156.066 59.9673 155.7C59.7182 155.326 59.33 155.139 58.8026 155.139ZM63.5433 154.304V155.26C63.873 154.572 64.4517 154.227 65.2794 154.227C65.8288 154.227 66.2646 154.396 66.587 154.733C66.9093 155.07 67.0704 155.527 67.0704 156.106V159.875H65.9936V156.359C65.9936 155.971 65.8947 155.674 65.6969 155.469C65.5065 155.264 65.2501 155.161 64.9278 155.161C64.5469 155.161 64.2209 155.311 63.9499 155.612C63.6788 155.905 63.5433 156.319 63.5433 156.853V159.875H62.4665V154.304H63.5433ZM69.6941 155.139V158.205C69.6941 158.74 69.9505 159.007 70.4633 159.007C70.7636 159.007 71.0163 158.926 71.2214 158.765V159.732C70.9797 159.864 70.683 159.93 70.3314 159.93C69.1813 159.93 68.6063 159.348 68.6063 158.183V155.139H67.7383V154.304H68.6063V152.942H69.6941V154.304H71.1555V155.139H69.6941ZM75.1224 157.392H74.2873C73.8771 157.392 73.5657 157.472 73.3533 157.633C73.1482 157.795 73.0457 158 73.0457 158.249C73.0457 158.505 73.1262 158.707 73.2874 158.853C73.4485 159 73.683 159.073 73.9906 159.073C74.3422 159.073 74.6169 158.978 74.8147 158.787C75.0198 158.589 75.1224 158.333 75.1224 158.018V157.392ZM72.3205 155.634V154.59C72.7526 154.341 73.324 154.216 74.0346 154.216C75.4923 154.216 76.2211 154.923 76.2211 156.337V159.875H75.1553V159.216C74.8696 159.685 74.3679 159.919 73.65 159.919C73.1226 159.919 72.6977 159.769 72.3754 159.468C72.0604 159.161 71.9029 158.773 71.9029 158.304C71.9029 157.769 72.1044 157.355 72.5073 157.062C72.9101 156.762 73.4742 156.612 74.1994 156.612H75.1224V156.293C75.1224 155.912 75.0308 155.626 74.8477 155.436C74.6645 155.238 74.3605 155.139 73.9357 155.139C73.3423 155.139 72.8039 155.304 72.3205 155.634ZM78.2541 157.117C78.2688 157.681 78.4409 158.146 78.7706 158.513C79.1002 158.871 79.5617 159.051 80.155 159.051C80.5946 159.051 81.0048 158.93 81.3857 158.688V159.655C81.0267 159.875 80.5689 159.985 80.0122 159.985C79.1405 159.985 78.4446 159.71 77.9245 159.161C77.4044 158.611 77.1444 157.926 77.1444 157.106C77.1444 156.308 77.4044 155.626 77.9245 155.062C78.4519 154.491 79.1625 154.205 80.0562 154.205C80.5396 154.205 80.9828 154.308 81.3857 154.513V155.502C81.0267 155.275 80.6202 155.161 80.166 155.161C79.5873 155.161 79.1222 155.344 78.7706 155.711C78.4263 156.077 78.2541 156.546 78.2541 157.117ZM83.7997 155.139V158.205C83.7997 158.74 84.0561 159.007 84.5689 159.007C84.8692 159.007 85.1219 158.926 85.3271 158.765V159.732C85.0853 159.864 84.7886 159.93 84.437 159.93C83.287 159.93 82.7119 159.348 82.7119 158.183V155.139H81.8439V154.304H82.7119V152.942H83.7997V154.304H85.2611V155.139H83.7997ZM89.7554 156.689V156.491C89.7408 156.073 89.6272 155.744 89.4148 155.502C89.2024 155.253 88.8984 155.128 88.5028 155.128C88.1365 155.128 87.8215 155.264 87.5578 155.535C87.2941 155.799 87.1293 156.183 87.0634 156.689H89.7554ZM90.4476 158.611V159.578C90.0374 159.813 89.4954 159.93 88.8214 159.93C87.9571 159.93 87.2685 159.67 86.7557 159.15C86.243 158.63 85.9866 157.948 85.9866 157.106C85.9866 156.212 86.221 155.513 86.6898 155.007C87.1586 154.495 87.7556 154.238 88.4808 154.238C89.1914 154.238 89.7554 154.462 90.1729 154.908C90.5905 155.348 90.7993 155.985 90.7993 156.82C90.7993 157.047 90.7773 157.286 90.7333 157.535H87.0744C87.1476 158.018 87.3527 158.388 87.6897 158.644C88.0267 158.901 88.4515 159.029 88.9643 159.029C89.5576 159.029 90.0521 158.89 90.4476 158.611ZM94.0999 159.007C94.5248 159.007 94.8837 158.846 95.1767 158.523C95.4697 158.201 95.6162 157.71 95.6162 157.051C95.6162 156.414 95.4624 155.941 95.1547 155.634C94.8544 155.326 94.5138 155.172 94.1329 155.172C93.7007 155.172 93.3454 155.344 93.067 155.689C92.7887 156.026 92.6495 156.509 92.6495 157.139C92.6495 157.696 92.785 158.146 93.056 158.491C93.3344 158.835 93.6824 159.007 94.0999 159.007ZM95.6162 152.107H96.704V159.875H95.6162V159.029C95.228 159.644 94.6603 159.952 93.9131 159.952C93.1806 159.952 92.6019 159.677 92.177 159.128C91.7522 158.571 91.5397 157.901 91.5397 157.117C91.5397 156.245 91.7631 155.546 92.21 155.018C92.6568 154.491 93.2319 154.227 93.9351 154.227C94.6603 154.227 95.2207 154.535 95.6162 155.15V152.107Z" fill="#202B4F"/>
<rect x="23.2113" y="147.778" width="17.0311" height="17.0311" rx="3.02165" stroke="#C1C4CE" stroke-width="1.28191"/>
</svg>
