<svg width="253" height="179" viewBox="0 0 253 179" fill="none" xmlns="http://www.w3.org/2000/svg">
<rect x="0.761719" y="0.621094" width="251.589" height="178.209" rx="10" fill="white"/>
<circle cx="34.3077" cy="34.1671" r="16.7726" fill="#E8F5EF"/>
<mask id="mask0_1036_16999" style="mask-type:alpha" maskUnits="userSpaceOnUse" x="17" y="17" width="35" height="34">
<circle cx="34.3077" cy="34.1671" r="16.7726" fill="#F6F7F8"/>
</mask>
<g mask="url(#mask0_1036_16999)">
<circle cx="34.3117" cy="32.0696" r="5.24143" fill="#1AD079"/>
<path d="M44.7899 46.2215C44.7899 50.5637 40.0966 54.0837 34.3071 54.0837C28.5176 54.0837 23.8242 50.5637 23.8242 46.2215C23.8242 41.8794 28.5176 38.3594 34.3071 38.3594C40.0966 38.3594 44.7899 41.8794 44.7899 46.2215Z" fill="#1AD079"/>
<path d="M34.3071 54.0837C28.5176 54.0837 23.8242 50.5637 23.8242 46.2215L23.8242 54.0837L34.3071 54.0837Z" fill="#1AD079"/>
<path d="M44.7899 46.2215C44.7899 50.5637 40.0966 54.0837 34.3071 54.0837L44.7899 54.0837L44.7899 46.2215Z" fill="#1AD079"/>
</g>
<path d="M74.309 21.0392L74.309 22.2038C73.9708 22.0193 73.6633 21.8925 73.3865 21.8233C73.1175 21.7464 72.7715 21.708 72.3487 21.708C71.5723 21.708 70.9227 21.9732 70.3999 22.5036C69.8849 23.0264 69.6274 23.7221 69.6274 24.5908C69.6274 25.4748 69.8849 26.1782 70.3999 26.701C70.915 27.2237 71.5953 27.4851 72.441 27.4851C73.1866 27.4851 73.8132 27.2929 74.3205 26.9085L74.3205 28.1078C73.8439 28.4229 73.1828 28.5805 72.3372 28.5805C71.1764 28.5805 70.227 28.2192 69.489 27.4966C68.751 26.774 68.382 25.8054 68.382 24.5908C68.382 23.4146 68.751 22.4575 69.489 21.7195C70.2347 20.9815 71.1764 20.6125 72.3141 20.6125C73.1444 20.6125 73.8093 20.7547 74.309 21.0392ZM75.4445 28.4883L75.4445 22.642L76.586 22.642L76.586 28.4883L75.4445 28.4883ZM75.5021 21.362C75.3714 21.2237 75.3061 21.0545 75.3061 20.8547C75.3061 20.6548 75.3714 20.4857 75.5021 20.3473C75.6405 20.2089 75.8096 20.1397 76.0095 20.1397C76.2094 20.1397 76.3785 20.2089 76.5169 20.3473C76.6552 20.4857 76.7244 20.6548 76.7244 20.8547C76.7244 21.0468 76.6552 21.2121 76.5169 21.3505C76.3785 21.4889 76.2094 21.5581 76.0095 21.5581C75.8096 21.5581 75.6405 21.4927 75.5021 21.362ZM81.6265 25.1442L81.6265 24.9367C81.6111 24.4985 81.492 24.1526 81.269 23.8989C81.0461 23.6375 80.7271 23.5068 80.312 23.5068C79.9276 23.5068 79.597 23.649 79.3203 23.9335C79.0435 24.2102 78.8706 24.6138 78.8014 25.1442L81.6265 25.1442ZM82.353 27.1622L82.353 28.1769C81.9225 28.4229 81.3536 28.5459 80.6464 28.5459C79.7392 28.5459 79.0166 28.273 78.4785 27.7272C77.9404 27.1814 77.6713 26.4665 77.6713 25.5824C77.6713 24.6446 77.9173 23.9104 78.4093 23.38C78.9013 22.8419 79.5278 22.5728 80.2889 22.5728C81.0346 22.5728 81.6265 22.8073 82.0647 23.2762C82.5029 23.7374 82.722 24.4063 82.722 25.2826C82.722 25.5209 82.6989 25.7708 82.6528 26.0321L78.8129 26.0321C78.8898 26.5395 79.105 26.9277 79.4586 27.1968C79.8123 27.4659 80.2581 27.6004 80.7963 27.6004C81.4189 27.6004 81.9378 27.4543 82.353 27.1622ZM84.952 22.642L84.952 23.6683C85.2364 22.9456 85.7476 22.5843 86.4856 22.5843C86.5932 22.5843 86.7124 22.5959 86.8431 22.6189L86.8431 23.7259C86.6816 23.6567 86.501 23.6221 86.3011 23.6221C85.9091 23.6221 85.5862 23.7951 85.3325 24.141C85.0788 24.487 84.952 24.8983 84.952 25.3749L84.952 28.4883L83.8219 28.4883L83.8219 22.642L84.952 22.642ZM90.5776 25.8822L89.7013 25.8822C89.2708 25.8822 88.9441 25.9668 88.7211 26.1359C88.5059 26.3051 88.3983 26.5203 88.3983 26.7817C88.3983 27.0507 88.4828 27.2621 88.6519 27.4159C88.8211 27.5696 89.0671 27.6465 89.3899 27.6465C89.7589 27.6465 90.0472 27.5466 90.2548 27.3467C90.47 27.1391 90.5776 26.8701 90.5776 26.5395L90.5776 25.8822ZM87.6372 24.0373L87.6372 22.9418C88.0908 22.6804 88.6904 22.5497 89.4361 22.5497C90.9659 22.5497 91.7308 23.2916 91.7308 24.7753L91.7308 28.4883L90.6122 28.4883L90.6122 27.7964C90.3124 28.2884 89.7858 28.5344 89.0325 28.5344C88.479 28.5344 88.0331 28.3768 87.6949 28.0616C87.3643 27.7388 87.199 27.3313 87.199 26.8393C87.199 26.2781 87.4104 25.8438 87.8332 25.5363C88.256 25.2211 88.848 25.0635 89.609 25.0635L90.5776 25.0635L90.5776 24.7291C90.5776 24.3294 90.4816 24.0296 90.2894 23.8297C90.0972 23.6221 89.7782 23.5184 89.3323 23.5184C88.7096 23.5184 88.1446 23.6913 87.6372 24.0373ZM100.346 20.7163L100.346 21.708L98.3049 21.708L98.3049 28.4883L97.1172 28.4883L97.1172 21.708L95.0877 21.708L95.0877 20.7163L100.346 20.7163ZM102.295 20.3358L102.295 23.6452C102.625 22.9226 103.229 22.5613 104.105 22.5613C104.674 22.5613 105.131 22.7381 105.477 23.0917C105.823 23.4453 105.996 23.9373 105.996 24.5677L105.996 28.4883L104.866 28.4883L104.866 24.7983C104.866 24.3986 104.762 24.0911 104.555 23.8758C104.355 23.6529 104.09 23.5414 103.759 23.5414C103.375 23.5414 103.033 23.6875 102.733 23.9796C102.441 24.2717 102.295 24.7176 102.295 25.3172L102.295 28.4883L101.165 28.4883L101.165 20.3358L102.295 20.3358ZM109.73 28.5921C108.869 28.5921 108.192 28.3115 107.7 27.7503C107.208 27.1891 106.962 26.478 106.962 25.617C106.962 24.7407 107.216 24.0142 107.723 23.4376C108.231 22.8534 108.899 22.5613 109.73 22.5613C110.621 22.5613 111.309 22.8457 111.794 23.4146C112.278 23.9758 112.52 24.6945 112.52 25.5709C112.52 26.4473 112.27 27.1699 111.771 27.7388C111.279 28.3076 110.598 28.5921 109.73 28.5921ZM109.718 23.5184C109.218 23.5184 108.83 23.7182 108.554 24.118C108.277 24.51 108.138 24.9982 108.138 25.5824C108.138 26.159 108.281 26.6471 108.565 27.0469C108.849 27.4389 109.238 27.635 109.73 27.635C110.252 27.635 110.648 27.4428 110.917 27.0584C111.194 26.674 111.333 26.1859 111.333 25.594C111.333 24.9867 111.202 24.4908 110.94 24.1064C110.679 23.7144 110.272 23.5184 109.718 23.5184ZM114.693 22.642L114.693 23.576C115.024 22.8995 115.574 22.5613 116.342 22.5613C117.219 22.5613 117.78 22.938 118.026 23.6913C118.187 23.33 118.422 23.0533 118.729 22.8611C119.037 22.6612 119.383 22.5613 119.767 22.5613C120.367 22.5613 120.82 22.7381 121.128 23.0917C121.443 23.4453 121.6 23.9335 121.6 24.5562L121.6 28.4883L120.47 28.4883L120.47 24.7983C120.47 23.9604 120.132 23.5414 119.456 23.5414C119.117 23.5414 118.814 23.6913 118.545 23.9911C118.283 24.2909 118.153 24.733 118.153 25.3172L118.153 28.4883L117.023 28.4883L117.023 24.7983C117.023 23.9604 116.681 23.5414 115.996 23.5414C115.666 23.5414 115.366 23.6913 115.097 23.9911C114.828 24.2909 114.693 24.733 114.693 25.3172L114.693 28.4883L113.563 28.4883L113.563 22.642L114.693 22.642ZM125.983 25.8822L125.107 25.8822C124.676 25.8822 124.35 25.9668 124.127 26.1359C123.911 26.3051 123.804 26.5203 123.804 26.7817C123.804 27.0507 123.888 27.2621 124.058 27.4159C124.227 27.5696 124.473 27.6465 124.796 27.6465C125.164 27.6465 125.453 27.5466 125.66 27.3467C125.876 27.1391 125.983 26.8701 125.983 26.5395L125.983 25.8822ZM123.043 24.0373L123.043 22.9418C123.496 22.6804 124.096 22.5497 124.842 22.5497C126.371 22.5497 127.136 23.2916 127.136 24.7753L127.136 28.4883L126.018 28.4883L126.018 27.7964C125.718 28.2884 125.191 28.5344 124.438 28.5344C123.885 28.5344 123.439 28.3768 123.1 28.0616C122.77 27.7388 122.605 27.3313 122.605 26.8393C122.605 26.2781 122.816 25.8438 123.239 25.5363C123.662 25.2211 124.254 25.0635 125.015 25.0635L125.983 25.0635L125.983 24.7291C125.983 24.3294 125.887 24.0296 125.695 23.8297C125.503 23.6221 125.184 23.5184 124.738 23.5184C124.115 23.5184 123.55 23.6913 123.043 24.0373ZM131.761 22.838L131.761 23.8643C131.384 23.6414 130.9 23.5299 130.308 23.5299C130.039 23.5299 129.823 23.5914 129.662 23.7144C129.508 23.8374 129.431 23.9988 129.431 24.1987C129.431 24.2525 129.435 24.3063 129.443 24.3601C129.458 24.4063 129.481 24.4562 129.512 24.51C129.543 24.5562 129.57 24.5984 129.593 24.6369C129.623 24.6676 129.67 24.7022 129.731 24.7407C129.793 24.7791 129.839 24.8137 129.869 24.8444C129.908 24.8675 129.966 24.8983 130.042 24.9367C130.127 24.9751 130.189 25.0059 130.227 25.0289C130.265 25.0443 130.331 25.0751 130.423 25.1212C130.523 25.1596 130.592 25.1865 130.631 25.2019C131.084 25.4018 131.438 25.6286 131.691 25.8822C131.953 26.1282 132.083 26.4588 132.083 26.8739C132.083 27.3967 131.899 27.8079 131.53 28.1078C131.161 28.3999 130.661 28.5459 130.031 28.5459C129.339 28.5459 128.762 28.4306 128.301 28.2L128.301 27.1276C128.839 27.4582 129.397 27.6234 129.973 27.6234C130.273 27.6234 130.504 27.5619 130.665 27.4389C130.834 27.3159 130.919 27.1545 130.919 26.9546C130.919 26.7855 130.853 26.6356 130.723 26.5049C130.592 26.3666 130.458 26.2666 130.319 26.2051C130.189 26.1359 129.962 26.0321 129.639 25.8938C128.724 25.5171 128.267 24.9636 128.267 24.2333C128.267 23.7182 128.459 23.3146 128.843 23.0225C129.228 22.7304 129.708 22.5843 130.285 22.5843C130.915 22.5843 131.407 22.6689 131.761 22.838Z" fill="#07133B"/>
<path d="M69.5079 44.5174L72.6003 44.5174L72.6003 45.2617L68.6587 45.2617L68.6587 38.1963L72.5479 38.1963L72.5479 38.9406L69.5079 38.9406L69.5079 41.3621L72.1915 41.3621L72.1915 42.1064L69.5079 42.1064L69.5079 44.5174ZM75.682 44.5908C76.1153 44.5908 76.4822 44.4301 76.7827 44.1086C77.0902 43.7871 77.244 43.2735 77.244 42.5676C77.244 41.8967 77.0867 41.404 76.7722 41.0895C76.4577 40.7751 76.1118 40.6178 75.7344 40.6178C75.2941 40.6178 74.9272 40.796 74.6337 41.1524C74.3472 41.5019 74.2039 42.005 74.2039 42.662C74.2039 43.235 74.3437 43.6998 74.6232 44.0562C74.9028 44.4126 75.2557 44.5908 75.682 44.5908ZM77.244 37.8503L78.0721 37.8503L78.0721 45.2617L77.244 45.2617L77.244 44.4755C76.8666 45.0556 76.3215 45.3456 75.6086 45.3456C74.9028 45.3456 74.3472 45.0835 73.9419 44.5594C73.5435 44.0352 73.3443 43.3993 73.3443 42.6515C73.3443 41.8198 73.5575 41.1489 73.9838 40.6388C74.4101 40.1216 74.9587 39.863 75.6296 39.863C76.3215 39.863 76.8596 40.1601 77.244 40.7541L77.244 37.8503ZM79.4389 45.2617L79.4389 39.9469L80.267 39.9469L80.267 45.2617L79.4389 45.2617ZM79.4599 38.668C79.362 38.5632 79.3131 38.4339 79.3131 38.2801C79.3131 38.1264 79.362 37.9971 79.4599 37.8923C79.5647 37.7874 79.694 37.735 79.8477 37.735C80.0015 37.735 80.1308 37.7874 80.2356 37.8923C80.3404 37.9971 80.3928 38.1264 80.3928 38.2801C80.3928 38.4339 80.3404 38.5632 80.2356 38.668C80.1308 38.7658 80.0015 38.8148 79.8477 38.8148C79.694 38.8148 79.5647 38.7658 79.4599 38.668ZM82.7766 40.6178L82.7766 43.7312C82.7766 44.2973 83.0422 44.5803 83.5733 44.5803C83.8459 44.5803 84.087 44.5 84.2966 44.3392L84.2966 45.1254C84.066 45.2512 83.8074 45.3141 83.5209 45.3141C82.4726 45.3141 81.9485 44.7795 81.9485 43.7103L81.9485 40.6178L81.0994 40.6178L81.0994 39.9469L81.9485 39.9469L81.9485 38.6261L82.7766 38.6261L82.7766 39.9469L84.2442 39.9469L84.2442 40.6178L82.7766 40.6178Z" fill="#C1C4CE"/>
<circle cx="225.095" cy="28.9272" r="1.04829" fill="#07133B"/>
<circle cx="225.099" cy="34.1694" r="1.04829" fill="#07133B"/>
<circle cx="225.099" cy="39.4077" r="1.04829" fill="#07133B"/>
<path d="M229.289 113.836L225.095 117.505L220.902 113.836" stroke="#07133B" stroke-width="1.57243" stroke-linecap="round" stroke-linejoin="round"/>
<path d="M229.289 143.188L225.095 146.856L220.902 143.188" stroke="#07133B" stroke-width="1.57243" stroke-linecap="round" stroke-linejoin="round"/>
<path d="M229.285 84.4844L225.092 88.1534L220.898 84.4844" stroke="#07133B" stroke-width="1.57243" stroke-linecap="round" stroke-linejoin="round"/>
<path d="M17.5312 67.7109L235.575 67.7109" stroke="#E6E7EB" stroke-width="1.04829" stroke-linecap="round"/>
<rect x="40.5977" y="84.4805" width="27.2554" height="4.19314" rx="1.04829" fill="#07133B"/>
<rect x="72.0469" y="84.4805" width="29.352" height="4.19314" rx="1.04829" fill="#1AD079"/>
<rect x="105.59" y="84.4805" width="92.2491" height="4.19314" rx="1.04829" fill="#07133B"/>
<rect x="118.172" y="113.832" width="79.6697" height="4.19314" rx="1.04829" fill="#1AD079"/>
<rect x="40.6016" y="113.832" width="73.38" height="4.19314" rx="1.04829" fill="#07133B"/>
<rect x="40.5977" y="143.184" width="41.9314" height="4.19314" rx="1.04829" fill="#07133B"/>
<rect x="86.7188" y="143.184" width="62.8971" height="4.19314" rx="1.04829" fill="#1AD079"/>
<rect x="153.809" y="143.184" width="44.028" height="4.19314" rx="1.04829" fill="#07133B"/>
<path d="M17.6714 84.8129L17.6714 83.5025L19.485 82.4333L20.5962 82.4333L20.5962 89.2891L19.3487 89.2891L19.3487 83.796L17.6714 84.8129ZM21.6801 89.1318C21.5193 88.9711 21.439 88.7789 21.439 88.5553C21.439 88.3316 21.5193 88.1429 21.6801 87.9892C21.8408 87.8285 22.033 87.7481 22.2566 87.7481C22.4803 87.7481 22.6689 87.8285 22.8227 87.9892C22.9834 88.1429 23.0638 88.3316 23.0638 88.5553C23.0638 88.7789 22.9834 88.9711 22.8227 89.1318C22.6689 89.2926 22.4803 89.3729 22.2566 89.3729C22.033 89.3729 21.8408 89.2926 21.6801 89.1318Z" fill="#07133B"/>
<path d="M19.6252 117.565L22.3612 117.565L22.3612 118.645L17.885 118.645L17.885 117.638C18.7027 117.058 19.4085 116.44 20.0025 115.783C20.5966 115.119 20.8936 114.521 20.8936 113.99C20.8936 113.641 20.7922 113.368 20.5896 113.172C20.3869 112.977 20.0934 112.879 19.709 112.879C19.129 112.879 18.5734 113.096 18.0422 113.529L18.0422 112.302C18.2729 112.128 18.5594 111.984 18.9018 111.873C19.2443 111.761 19.5867 111.705 19.9292 111.705C20.6001 111.705 21.1452 111.89 21.5645 112.26C21.9908 112.624 22.2039 113.138 22.2039 113.801C22.2039 115.045 21.3443 116.3 19.6252 117.565ZM23.1479 118.487C22.9871 118.327 22.9068 118.134 22.9068 117.911C22.9068 117.687 22.9871 117.498 23.1479 117.345C23.3086 117.184 23.5008 117.104 23.7244 117.104C23.9481 117.104 24.1368 117.184 24.2905 117.345C24.4513 117.498 24.5316 117.687 24.5316 117.911C24.5316 118.134 24.4513 118.327 24.2905 118.487C24.1368 118.648 23.9481 118.728 23.7244 118.728C23.5008 118.728 23.3086 118.648 23.1479 118.487Z" fill="#07133B"/>
<path d="M18.1327 142.629L18.1327 141.444C18.6079 141.186 19.1076 141.056 19.6317 141.056C20.3516 141.056 20.9141 141.231 21.3195 141.581C21.7318 141.93 21.938 142.377 21.938 142.922C21.938 143.712 21.578 144.25 20.8582 144.537C21.2496 144.635 21.5536 144.82 21.7702 145.092C21.9869 145.358 22.0952 145.697 22.0952 146.109C22.0952 146.682 21.882 147.15 21.4557 147.514C21.0364 147.87 20.4459 148.049 19.6841 148.049C18.9783 148.049 18.3773 147.933 17.8811 147.703L17.8811 146.476C18.4262 146.77 18.9993 146.916 19.6003 146.916C19.9777 146.916 20.2712 146.829 20.4808 146.654C20.6975 146.473 20.8058 146.242 20.8058 145.962C20.8058 145.354 20.3131 145.05 19.3277 145.05L18.9294 145.05L18.9294 143.992L19.3277 143.992C19.6981 143.992 20.0091 143.911 20.2607 143.751C20.5123 143.59 20.6381 143.363 20.6381 143.069C20.6381 142.482 20.2782 142.189 19.5583 142.189C19.0831 142.189 18.6079 142.335 18.1327 142.629ZM22.9085 147.839C22.7478 147.678 22.6674 147.486 22.6674 147.262C22.6674 147.039 22.7478 146.85 22.9085 146.696C23.0693 146.535 23.2614 146.455 23.4851 146.455C23.7087 146.455 23.8974 146.535 24.0512 146.696C24.2119 146.85 24.2923 147.039 24.2923 147.262C24.2923 147.486 24.2119 147.678 24.0512 147.839C23.8974 148 23.7087 148.08 23.4851 148.08C23.2614 148.08 23.0693 148 22.9085 147.839Z" fill="#07133B"/>
</svg>
